<svg id="my-svg" width="100%" xmlns="http://www.w3.org/2000/svg" xmlns:xlink="http://www.w3.org/1999/xlink" class="flowchart" style="max-width: 2562.6px; background-color: white;" viewBox="0 -50 2562.59716796875 864.5" role="graphics-document document" aria-roledescription="flowchart-v2"><style>#my-svg{font-family:"trebuchet ms",verdana,arial,sans-serif;font-size:16px;fill:#333;}@keyframes edge-animation-frame{from{stroke-dashoffset:0;}}@keyframes dash{to{stroke-dashoffset:0;}}#my-svg .edge-animation-slow{stroke-dasharray:9,5!important;stroke-dashoffset:900;animation:dash 50s linear infinite;stroke-linecap:round;}#my-svg .edge-animation-fast{stroke-dasharray:9,5!important;stroke-dashoffset:900;animation:dash 20s linear infinite;stroke-linecap:round;}#my-svg .error-icon{fill:#552222;}#my-svg .error-text{fill:#552222;stroke:#552222;}#my-svg .edge-thickness-normal{stroke-width:1px;}#my-svg .edge-thickness-thick{stroke-width:3.5px;}#my-svg .edge-pattern-solid{stroke-dasharray:0;}#my-svg .edge-thickness-invisible{stroke-width:0;fill:none;}#my-svg .edge-pattern-dashed{stroke-dasharray:3;}#my-svg .edge-pattern-dotted{stroke-dasharray:2;}#my-svg .marker{fill:#333333;stroke:#333333;}#my-svg .marker.cross{stroke:#333333;}#my-svg svg{font-family:"trebuchet ms",verdana,arial,sans-serif;font-size:16px;}#my-svg p{margin:0;}#my-svg .label{font-family:"trebuchet ms",verdana,arial,sans-serif;color:#333;}#my-svg .cluster-label text{fill:#333;}#my-svg .cluster-label span{color:#333;}#my-svg .cluster-label span p{background-color:transparent;}#my-svg .label text,#my-svg span{fill:#333;color:#333;}#my-svg .node rect,#my-svg .node circle,#my-svg .node ellipse,#my-svg .node polygon,#my-svg .node path{fill:#ECECFF;stroke:#9370DB;stroke-width:1px;}#my-svg .rough-node .label text,#my-svg .node .label text,#my-svg .image-shape .label,#my-svg .icon-shape .label{text-anchor:middle;}#my-svg .node .katex path{fill:#000;stroke:#000;stroke-width:1px;}#my-svg .rough-node .label,#my-svg .node .label,#my-svg .image-shape .label,#my-svg .icon-shape .label{text-align:center;}#my-svg .node.clickable{cursor:pointer;}#my-svg .root .anchor path{fill:#333333!important;stroke-width:0;stroke:#333333;}#my-svg .arrowheadPath{fill:#333333;}#my-svg .edgePath .path{stroke:#333333;stroke-width:1px;}#my-svg .flowchart-link{stroke:#333333;fill:none;}#my-svg .edgeLabel{background-color:rgba(232,232,232, 0.8);text-align:center;}#my-svg .edgeLabel p{background-color:rgba(232,232,232, 0.8);}#my-svg .edgeLabel rect{opacity:0.5;background-color:rgba(232,232,232, 0.8);fill:rgba(232,232,232, 0.8);}#my-svg .labelBkg{background-color:rgba(232, 232, 232, 0.5);}#my-svg .cluster rect{fill:#ffffde;stroke:#aaaa33;stroke-width:1px;}#my-svg .cluster text{fill:#333;}#my-svg .cluster span{color:#333;}#my-svg div.mermaidTooltip{position:absolute;text-align:center;max-width:200px;padding:2px;font-family:"trebuchet ms",verdana,arial,sans-serif;font-size:12px;background:hsl(80, 100%, 96.2745098039%);border:1px solid #aaaa33;border-radius:2px;pointer-events:none;z-index:100;}#my-svg .flowchartTitleText{text-anchor:middle;font-size:18px;fill:#333;}#my-svg rect.text{fill:none;stroke-width:0;}#my-svg .icon-shape,#my-svg .image-shape{background-color:rgba(232,232,232, 0.8);text-align:center;}#my-svg .icon-shape p,#my-svg .image-shape p{background-color:rgba(232,232,232, 0.8);padding:2px;}#my-svg .icon-shape .label rect,#my-svg .image-shape .label rect{opacity:0.5;background-color:rgba(232,232,232, 0.8);fill:rgba(232,232,232, 0.8);}#my-svg .label-icon{display:inline-block;height:1em;overflow:visible;vertical-align:-0.125em;}#my-svg .node .label-icon path{fill:currentColor;stroke:revert;stroke-width:revert;}#my-svg .node .neo-node{stroke:#9370DB;}#my-svg [data-look="neo"].node rect,#my-svg [data-look="neo"].cluster rect,#my-svg [data-look="neo"].node polygon{stroke:#9370DB;filter:drop-shadow(1px 2px 2px rgba(185, 185, 185, 1));}#my-svg [data-look="neo"].node path{stroke:#9370DB;stroke-width:1px;}#my-svg [data-look="neo"].node .outer-path{filter:drop-shadow(1px 2px 2px rgba(185, 185, 185, 1));}#my-svg [data-look="neo"].node .neo-line path{stroke:#9370DB;filter:none;}#my-svg [data-look="neo"].node circle{stroke:#9370DB;filter:drop-shadow(1px 2px 2px rgba(185, 185, 185, 1));}#my-svg [data-look="neo"].node circle .state-start{fill:#000000;}#my-svg [data-look="neo"].icon-shape .icon{fill:#9370DB;filter:drop-shadow(1px 2px 2px rgba(185, 185, 185, 1));}#my-svg [data-look="neo"].icon-shape .icon-neo path{stroke:#9370DB;filter:drop-shadow(1px 2px 2px rgba(185, 185, 185, 1));}#my-svg :root{--mermaid-font-family:"trebuchet ms",verdana,arial,sans-serif;}#my-svg .store&gt;*{fill:rgb(243, 244, 246)!important;stroke:rgb(156, 163, 175)!important;color:rgb(17, 24, 39)!important;}#my-svg .store span{fill:rgb(243, 244, 246)!important;stroke:rgb(156, 163, 175)!important;color:rgb(17, 24, 39)!important;}#my-svg .store tspan{fill:rgb(17, 24, 39)!important;}#my-svg .ext&gt;*{fill:rgb(255, 247, 237)!important;stroke:rgb(245, 158, 11)!important;color:rgb(17, 24, 39)!important;}#my-svg .ext span{fill:rgb(255, 247, 237)!important;stroke:rgb(245, 158, 11)!important;color:rgb(17, 24, 39)!important;}#my-svg .ext tspan{fill:rgb(17, 24, 39)!important;}</style><g><marker id="my-svg_flowchart-v2-pointEnd" class="marker flowchart-v2" viewBox="0 0 10 10" refX="5" refY="5" markerUnits="userSpaceOnUse" markerWidth="8" markerHeight="8" orient="auto"><path d="M 0 0 L 10 5 L 0 10 z" class="arrowMarkerPath" style="stroke-width: 1; stroke-dasharray: 1, 0;"/></marker><marker id="my-svg_flowchart-v2-pointStart" class="marker flowchart-v2" viewBox="0 0 10 10" refX="4.5" refY="5" markerUnits="userSpaceOnUse" markerWidth="8" markerHeight="8" orient="auto"><path d="M 0 5 L 10 10 L 10 0 z" class="arrowMarkerPath" style="stroke-width: 1; stroke-dasharray: 1, 0;"/></marker><marker id="my-svg_flowchart-v2-pointEnd-margin" class="marker flowchart-v2" viewBox="0 0 11.5 14" refX="11.5" refY="7" markerUnits="userSpaceOnUse" markerWidth="10.5" markerHeight="14" orient="auto"><path d="M 0 0 L 11.5 7 L 0 14 z" class="arrowMarkerPath" style="stroke-width: 0; stroke-dasharray: 1, 0;"/></marker><marker id="my-svg_flowchart-v2-pointStart-margin" class="marker flowchart-v2" viewBox="0 0 11.5 14" refX="1" refY="7" markerUnits="userSpaceOnUse" markerWidth="11.5" markerHeight="14" orient="auto"><polygon points="0,7 11.5,14 11.5,0" class="arrowMarkerPath" style="stroke-width: 0; stroke-dasharray: 1, 0;"/></marker><marker id="my-svg_flowchart-v2-circleEnd" class="marker flowchart-v2" viewBox="0 0 10 10" refX="11" refY="5" markerUnits="userSpaceOnUse" markerWidth="11" markerHeight="11" orient="auto"><circle cx="5" cy="5" r="5" class="arrowMarkerPath" style="stroke-width: 1; stroke-dasharray: 1, 0;"/></marker><marker id="my-svg_flowchart-v2-circleStart" class="marker flowchart-v2" viewBox="0 0 10 10" refX="-1" refY="5" markerUnits="userSpaceOnUse" markerWidth="11" markerHeight="11" orient="auto"><circle cx="5" cy="5" r="5" class="arrowMarkerPath" style="stroke-width: 1; stroke-dasharray: 1, 0;"/></marker><marker id="my-svg_flowchart-v2-circleEnd-margin" class="marker flowchart-v2" viewBox="0 0 10 10" refY="5" refX="12.25" markerUnits="userSpaceOnUse" markerWidth="14" markerHeight="14" orient="auto"><circle cx="5" cy="5" r="5" class="arrowMarkerPath" style="stroke-width: 0; stroke-dasharray: 1, 0;"/></marker><marker id="my-svg_flowchart-v2-circleStart-margin" class="marker flowchart-v2" viewBox="0 0 10 10" refX="-2" refY="5" markerUnits="userSpaceOnUse" markerWidth="14" markerHeight="14" orient="auto"><circle cx="5" cy="5" r="5" class="arrowMarkerPath" style="stroke-width: 0; stroke-dasharray: 1, 0;"/></marker><marker id="my-svg_flowchart-v2-crossEnd" class="marker cross flowchart-v2" viewBox="0 0 11 11" refX="12" refY="5.2" markerUnits="userSpaceOnUse" markerWidth="11" markerHeight="11" orient="auto"><path d="M 1,1 l 9,9 M 10,1 l -9,9" class="arrowMarkerPath" style="stroke-width: 2; stroke-dasharray: 1, 0;"/></marker><marker id="my-svg_flowchart-v2-crossStart" class="marker cross flowchart-v2" viewBox="0 0 11 11" refX="-1" refY="5.2" markerUnits="userSpaceOnUse" markerWidth="11" markerHeight="11" orient="auto"><path d="M 1,1 l 9,9 M 10,1 l -9,9" class="arrowMarkerPath" style="stroke-width: 2; stroke-dasharray: 1, 0;"/></marker><marker id="my-svg_flowchart-v2-crossEnd-margin" class="marker cross flowchart-v2" viewBox="0 0 15 15" refX="17.7" refY="7.5" markerUnits="userSpaceOnUse" markerWidth="12" markerHeight="12" orient="auto"><path d="M 1,1 L 14,14 M 1,14 L 14,1" class="arrowMarkerPath" style="stroke-width: 2.5;"/></marker><marker id="my-svg_flowchart-v2-crossStart-margin" class="marker cross flowchart-v2" viewBox="0 0 15 15" refX="-3.5" refY="7.5" markerUnits="userSpaceOnUse" markerWidth="12" markerHeight="12" orient="auto"><path d="M 1,1 L 14,14 M 1,14 L 14,1" class="arrowMarkerPath" style="stroke-width: 2.5; stroke-dasharray: 1, 0;"/></marker><g class="root"><g class="clusters"/><g class="edgePaths"><path d="M141.42,307L141.42,350.833C141.42,394.667,141.42,482.333,185.993,534.379C230.567,586.425,319.714,602.85,364.288,611.063L408.862,619.275" id="my-svg-L_EXT_MP_0" class="edge-thickness-normal edge-pattern-solid edge-thickness-normal edge-pattern-solid flowchart-link" style=";" data-edge="true" data-et="edge" data-id="L_EXT_MP_0" data-points="W3sieCI6MTQxLjQxOTY3NzczNDM3NSwieSI6MzAzfSx7IngiOjE0MS40MTk2Nzc3MzQzNzUsInkiOjU3MH0seyJ4Ijo0MTIuNzk1NjU5NDA5NzY3NjcsInkiOjYyMH1d" data-look="classic" marker-start="url(#my-svg_flowchart-v2-pointStart)" marker-end="url(#my-svg_flowchart-v2-pointEnd)"/><path d="M985.193,620L991.116,611.667C997.039,603.333,1008.886,586.667,1026.957,570.366C1045.029,554.065,1069.326,538.129,1081.474,530.161L1093.623,522.194" id="my-svg-L_MP_ROOT_0" class="edge-thickness-thick edge-pattern-solid edge-thickness-normal edge-pattern-solid flowchart-link" style=";" data-edge="true" data-et="edge" data-id="L_MP_ROOT_0" data-points="W3sieCI6OTg1LjE5MjgwMTY0MzYyNDUsInkiOjYyMH0seyJ4IjoxMDIwLjczMjE3NzczNDM3NSwieSI6NTcwfSx7IngiOjEwOTYuOTY3NzAwODMzNTg4NywieSI6NTIwfV0=" data-look="classic" marker-end="url(#my-svg_flowchart-v2-pointEnd)"/><path d="M926.602,520L908.35,528.333C890.098,536.667,853.595,553.333,840.88,569.457C828.166,585.58,839.24,601.16,844.777,608.95L850.314,616.74" id="my-svg-L_ROOT_MP_0" class="edge-thickness-thick edge-pattern-solid edge-thickness-normal edge-pattern-solid flowchart-link" style=";" data-edge="true" data-et="edge" data-id="L_ROOT_MP_0" data-points="W3sieCI6OTI2LjYwMTY4Nzc2MTY5MzMsInkiOjUyMH0seyJ4Ijo4MTcuMDkxNTUyNzM0Mzc1LCJ5Ijo1NzB9LHsieCI6ODUyLjYzMDkyODgyNTEyNTUsInkiOjYyMH1d" data-look="classic" marker-end="url(#my-svg_flowchart-v2-pointEnd)"/><path d="M1812.985,520L1823.587,528.333C1834.189,536.667,1855.393,553.333,1865.995,581.079C1876.597,608.826,1876.597,647.651,1876.597,667.064L1876.597,686.477" id="my-svg-L_ROOT_WEB_0" class="edge-thickness-normal edge-pattern-dotted edge-thickness-normal edge-pattern-solid flowchart-link" style=";" data-edge="true" data-et="edge" data-id="L_ROOT_WEB_0" data-points="W3sieCI6MTgxMi45ODU0NzA0NDE0MzE3LCJ5Ijo1MjB9LHsieCI6MTg3Ni41OTcxNjc5Njg3NSwieSI6NTcwfSx7IngiOjE4NzYuNTk3MTY3OTY4NzUsInkiOjY5MC40NzY1NjI1fV0=" data-look="classic" marker-end="url(#my-svg_flowchart-v2-pointEnd)"/><path d="M1962.802,520L1978.281,528.333C1993.76,536.667,2024.718,553.333,2040.196,576.418C2055.675,599.502,2055.675,629.004,2055.675,643.755L2055.675,658.506" id="my-svg-L_ROOT_VS_0" class="edge-thickness-normal edge-pattern-dotted edge-thickness-normal edge-pattern-solid flowchart-link" style=";" data-edge="true" data-et="edge" data-id="L_ROOT_VS_0" data-points="W3sieCI6MTk2Mi44MDI0NjM5MDU0ODQsInkiOjUyMH0seyJ4IjoyMDU1LjY3NTI5Mjk2ODc1LCJ5Ijo1NzB9LHsieCI6MjA1NS42NzUyOTI5Njg3NSwieSI6NjYyLjUwNTk0NzExMzAzNzF9XQ==" data-look="classic" marker-end="url(#my-svg_flowchart-v2-pointEnd)"/><path d="M2118.195,520L2138.732,528.333C2159.269,536.667,2200.343,553.333,2220.88,576.744C2241.417,600.155,2241.417,630.31,2241.417,645.387L2241.417,660.464" id="my-svg-L_ROOT_VX_0" class="edge-thickness-normal edge-pattern-dotted edge-thickness-normal edge-pattern-solid flowchart-link" style=";" data-edge="true" data-et="edge" data-id="L_ROOT_VX_0" data-points="W3sieCI6MjExOC4xOTQ2MjA3NjgyMjksInkiOjUyMH0seyJ4IjoyMjQxLjQxNzQ4MDQ2ODc1LCJ5Ijo1NzB9LHsieCI6MjI0MS40MTc0ODA0Njg3NSwieSI6NjY0LjQ2NDI2NzczMDcxMjl9XQ==" data-look="classic" marker-end="url(#my-svg_flowchart-v2-pointEnd)"/><path d="M2296.541,520L2322.884,528.333C2349.226,536.667,2401.912,553.333,2428.254,578.64C2454.597,603.946,2454.597,637.892,2454.597,654.865L2454.597,671.838" id="my-svg-L_ROOT_GCS_0" class="edge-thickness-normal edge-pattern-solid edge-thickness-normal edge-pattern-solid flowchart-link" style=";" data-edge="true" data-et="edge" data-id="L_ROOT_GCS_0" data-points="W3sieCI6MjI5Ni41NDEwMjU5OTY5ODcsInkiOjUyMH0seyJ4IjoyNDU0LjU5NzE2Nzk2ODc1LCJ5Ijo1NzB9LHsieCI6MjQ1NC41OTcxNjc5Njg3NSwieSI6Njc1LjgzNzY0NjQ4NDM3NX1d" data-look="classic" marker-end="url(#my-svg_flowchart-v2-pointEnd)"/></g><g class="edgeLabels"><g class="edgeLabel" transform="translate(141.419677734375, 570)"><g class="label" data-id="L_EXT_MP_0" transform="translate(-76.28125, -24)"><foreignObject width="152.5625" height="48"><div xmlns="http://www.w3.org/1999/xhtml" class="labelBkg" style="display: table-cell; white-space: nowrap; line-height: 1.5; max-width: 200px; text-align: center;"><span class="edgeLabel"><p>Simple Webhook v1.1<br />+ A2A AgentCard</p></span></div></foreignObject></g></g><g class="edgeLabel" transform="translate(1020.732177734375, 570)"><g class="label" data-id="L_MP_ROOT_0" transform="translate(-83.640625, -12)"><foreignObject width="167.28125" height="24"><div xmlns="http://www.w3.org/1999/xhtml" class="labelBkg" style="display: table-cell; white-space: nowrap; line-height: 1.5; max-width: 200px; text-align: center;"><span class="edgeLabel"><p>orchestrator runs order</p></span></div></foreignObject></g></g><g class="edgeLabel" transform="translate(843.94542, 557.7391)"><g class="label" data-id="L_ROOT_MP_0" transform="translate(-100, -24)"><foreignObject width="200" height="48"><div xmlns="http://www.w3.org/1999/xhtml" class="labelBkg" style="display: table; white-space: break-spaces; line-height: 1.5; max-width: 200px; text-align: center; width: 200px;"><span class="edgeLabel"><p>delivery: package + scorecard</p></span></div></foreignObject></g></g><g class="edgeLabel" transform="translate(1876.59716796875, 570)"><g class="label" data-id="L_ROOT_WEB_0" transform="translate(-86.515625, -12)"><foreignObject width="173.03125" height="24"><div xmlns="http://www.w3.org/1999/xhtml" class="labelBkg" style="display: table-cell; white-space: nowrap; line-height: 1.5; max-width: 200px; text-align: center;"><span class="edgeLabel"><p>brand_research · search</p></span></div></foreignObject></g></g><g class="edgeLabel" transform="translate(2055.67529296875, 570)"><g class="label" data-id="L_ROOT_VS_0" transform="translate(-72.5625, -12)"><foreignObject width="145.125" height="24"><div xmlns="http://www.w3.org/1999/xhtml" class="labelBkg" style="display: table-cell; white-space: nowrap; line-height: 1.5; max-width: 200px; text-align: center;"><span class="edgeLabel"><p>brand_rag · retrieve</p></span></div></foreignObject></g></g><g class="edgeLabel" transform="translate(2241.41748046875, 570)"><g class="label" data-id="L_ROOT_VX_0" transform="translate(-93.1796875, -36)"><foreignObject width="186.359375" height="72"><div xmlns="http://www.w3.org/1999/xhtml" class="labelBkg" style="display: table-cell; white-space: nowrap; line-height: 1.5; max-width: 200px; text-align: center;"><span class="edgeLabel"><p>intake · Gemini 3.x global<br />images · Gemini image<br />video · Veo us-central1</p></span></div></foreignObject></g></g><g class="edgeLabel" transform="translate(2454.59716796875, 570)"><g class="label" data-id="L_ROOT_GCS_0" transform="translate(-100, -36)"><foreignObject width="200" height="72"><div xmlns="http://www.w3.org/1999/xhtml" class="labelBkg" style="display: table; white-space: break-spaces; line-height: 1.5; max-width: 200px; text-align: center; width: 200px;"><span class="edgeLabel"><p>images · videos · cards · manifest<br />brand_qa compare</p></span></div></foreignObject></g></g></g><g class="nodes"><g class="root" transform="translate(458.6217041015625, 0)"><g class="clusters"><g class="cluster" id="my-svg-ROOT" data-look="classic"><rect style="fill:#ecfeff !important;stroke:#06b6d4 !important" x="8" y="8" width="2041.34375" height="512"/><g class="cluster-label" transform="translate(823.3125, 8)"><foreignObject width="410.71875" height="24"><div xmlns="http://www.w3.org/1999/xhtml" style="display: table-cell; white-space: nowrap; line-height: 1.5;"><span class="nodeLabel" style="color:#111827 !important"><p>Lumina Agent · Google ADK — Sequential · Parallel · Loop</p></span></div></foreignObject></g></g></g><g class="edgePaths"><path d="M206.5,264L210.917,264C215.333,264,224.167,264,232.333,264C240.5,264,248,264,251.75,264L255.5,264" id="my-svg-L_VIS_INT_0" class="edge-thickness-normal edge-pattern-solid edge-thickness-normal edge-pattern-solid flowchart-link" style=";" data-edge="true" data-et="edge" data-id="L_VIS_INT_0" data-points="W3sieCI6MjA2LjUsInkiOjI2NH0seyJ4IjoyMzMsInkiOjI2NH0seyJ4IjoyNTkuNSwieSI6MjY0fV0=" data-look="classic" marker-end="url(#my-svg_flowchart-v2-pointEnd)"/><path d="M414.375,264L418.792,264C423.208,264,432.042,264,440.208,264C448.375,264,455.875,264,459.625,264L463.375,264" id="my-svg-L_INT_GND_0" class="edge-thickness-normal edge-pattern-solid edge-thickness-normal edge-pattern-solid flowchart-link" style=";" data-edge="true" data-et="edge" data-id="L_INT_GND_0" data-points="W3sieCI6NDE0LjM3NSwieSI6MjY0fSx7IngiOjQ0MC44NzUsInkiOjI2NH0seyJ4Ijo0NjcuMzc1LCJ5IjoyNjR9XQ==" data-look="classic" marker-end="url(#my-svg_flowchart-v2-pointEnd)"/><path d="M722.531,264L726.948,264C731.365,264,740.198,264,748.365,264C756.531,264,764.031,264,767.781,264L771.531,264" id="my-svg-L_GND_PLAN_0" class="edge-thickness-normal edge-pattern-solid edge-thickness-normal edge-pattern-solid flowchart-link" style=";" data-edge="true" data-et="edge" data-id="L_GND_PLAN_0" data-points="W3sieCI6NzIyLjUzMTI1LCJ5IjoyNjR9LHsieCI6NzQ5LjAzMTI1LCJ5IjoyNjR9LHsieCI6Nzc1LjUzMTI1LCJ5IjoyNjR9XQ==" data-look="classic" marker-end="url(#my-svg_flowchart-v2-pointEnd)"/><path d="M928.547,264L932.964,264C937.38,264,946.214,264,954.38,264C962.547,264,970.047,264,973.797,264L977.547,264" id="my-svg-L_PLAN_PROD_0" class="edge-thickness-normal edge-pattern-solid edge-thickness-normal edge-pattern-solid flowchart-link" style=";" data-edge="true" data-et="edge" data-id="L_PLAN_PROD_0" data-points="W3sieCI6OTI4LjU0Njg3NSwieSI6MjY0fSx7IngiOjk1NS4wNDY4NzUsInkiOjI2NH0seyJ4Ijo5ODEuNTQ2ODc1LCJ5IjoyNjR9XQ==" data-look="classic" marker-end="url(#my-svg_flowchart-v2-pointEnd)"/><path d="M1237.906,264L1242.323,264C1246.74,264,1255.573,264,1263.74,264C1271.906,264,1279.406,264,1283.156,264L1286.906,264" id="my-svg-L_PROD_CARD_0" class="edge-thickness-normal edge-pattern-solid edge-thickness-normal edge-pattern-solid flowchart-link" style=";" data-edge="true" data-et="edge" data-id="L_PROD_CARD_0" data-points="W3sieCI6MTIzNy45MDYyNSwieSI6MjY0fSx7IngiOjEyNjQuNDA2MjUsInkiOjI2NH0seyJ4IjoxMjkwLjkwNjI1LCJ5IjoyNjR9XQ==" data-look="classic" marker-end="url(#my-svg_flowchart-v2-pointEnd)"/><path d="M1489.891,264L1494.307,264C1498.724,264,1507.557,264,1515.724,264C1523.891,264,1531.391,264,1535.141,264L1538.891,264" id="my-svg-L_CARD_QA_0" class="edge-thickness-normal edge-pattern-solid edge-thickness-normal edge-pattern-solid flowchart-link" style=";" data-edge="true" data-et="edge" data-id="L_CARD_QA_0" data-points="W3sieCI6MTQ4OS44OTA2MjUsInkiOjI2NH0seyJ4IjoxNTE2LjM5MDYyNSwieSI6MjY0fSx7IngiOjE1NDIuODkwNjI1LCJ5IjoyNjR9XQ==" data-look="classic" marker-end="url(#my-svg_flowchart-v2-pointEnd)"/><path d="M1763.625,264L1768.042,264C1772.458,264,1781.292,264,1789.458,264C1797.625,264,1805.125,264,1808.875,264L1812.625,264" id="my-svg-L_QA_MAN_0" class="edge-thickness-normal edge-pattern-solid edge-thickness-normal edge-pattern-solid flowchart-link" style=";" data-edge="true" data-et="edge" data-id="L_QA_MAN_0" data-points="W3sieCI6MTc2My42MjUsInkiOjI2NH0seyJ4IjoxNzkwLjEyNSwieSI6MjY0fSx7IngiOjE4MTYuNjI1LCJ5IjoyNjR9XQ==" data-look="classic" marker-end="url(#my-svg_flowchart-v2-pointEnd)"/></g><g class="edgeLabels"><g class="edgeLabel"><g class="label" data-id="L_VIS_INT_0" transform="translate(0, 0)"><foreignObject width="0" height="0"><div xmlns="http://www.w3.org/1999/xhtml" class="labelBkg" style="display: table-cell; white-space: nowrap; line-height: 1.5; max-width: 200px; text-align: center;"><span class="edgeLabel"></span></div></foreignObject></g></g><g class="edgeLabel"><g class="label" data-id="L_INT_GND_0" transform="translate(0, 0)"><foreignObject width="0" height="0"><div xmlns="http://www.w3.org/1999/xhtml" class="labelBkg" style="display: table-cell; white-space: nowrap; line-height: 1.5; max-width: 200px; text-align: center;"><span class="edgeLabel"></span></div></foreignObject></g></g><g class="edgeLabel"><g class="label" data-id="L_GND_PLAN_0" transform="translate(0, 0)"><foreignObject width="0" height="0"><div xmlns="http://www.w3.org/1999/xhtml" class="labelBkg" style="display: table-cell; white-space: nowrap; line-height: 1.5; max-width: 200px; text-align: center;"><span class="edgeLabel"></span></div></foreignObject></g></g><g class="edgeLabel"><g class="label" data-id="L_PLAN_PROD_0" transform="translate(0, 0)"><foreignObject width="0" height="0"><div xmlns="http://www.w3.org/1999/xhtml" class="labelBkg" style="display: table-cell; white-space: nowrap; line-height: 1.5; max-width: 200px; text-align: center;"><span class="edgeLabel"></span></div></foreignObject></g></g><g class="edgeLabel"><g class="label" data-id="L_PROD_CARD_0" transform="translate(0, 0)"><foreignObject width="0" height="0"><div xmlns="http://www.w3.org/1999/xhtml" class="labelBkg" style="display: table-cell; white-space: nowrap; line-height: 1.5; max-width: 200px; text-align: center;"><span class="edgeLabel"></span></div></foreignObject></g></g><g class="edgeLabel"><g class="label" data-id="L_CARD_QA_0" transform="translate(0, 0)"><foreignObject width="0" height="0"><div xmlns="http://www.w3.org/1999/xhtml" class="labelBkg" style="display: table-cell; white-space: nowrap; line-height: 1.5; max-width: 200px; text-align: center;"><span class="edgeLabel"></span></div></foreignObject></g></g><g class="edgeLabel"><g class="label" data-id="L_QA_MAN_0" transform="translate(0, 0)"><foreignObject width="0" height="0"><div xmlns="http://www.w3.org/1999/xhtml" class="labelBkg" style="display: table-cell; white-space: nowrap; line-height: 1.5; max-width: 200px; text-align: center;"><span class="edgeLabel"></span></div></foreignObject></g></g></g><g class="nodes"><g class="root" transform="translate(1534.890625, 166)"><g class="clusters"><g class="cluster" id="my-svg-QA" data-look="classic"><rect style="fill:#ffffff !important;stroke:#a5b4fc !important" x="8" y="8" width="220.734375" height="180"/><g class="cluster-label" transform="translate(54.453125, 8)"><foreignObject width="127.828125" height="24"><div xmlns="http://www.w3.org/1999/xhtml" style="display: table-cell; white-space: nowrap; line-height: 1.5;"><span class="nodeLabel" style="color:#111827 !important"><p>qa_loop · Loop ≤2</p></span></div></foreignObject></g></g></g><g class="edgePaths"/><g class="edgeLabels"/><g class="nodes"><g class="node default" id="my-svg-flowchart-BQA-40" data-look="classic" transform="translate(118.3671875, 98)"><rect class="basic label-container" style="" x="-88.3671875" y="-51" width="176.734375" height="102"/><g class="label" style="" transform="translate(-58.3671875, -36)"><rect/><foreignObject width="116.734375" height="72"><div xmlns="http://www.w3.org/1999/xhtml" style="display: table-cell; white-space: nowrap; line-height: 1.5; max-width: 200px; text-align: center;"><span class="nodeLabel"><p>brand_qa<br />fidelity + brand,<br />regenerate</p></span></div></foreignObject></g></g></g></g><g class="node default" id="my-svg-flowchart-VIS-18" data-look="classic" transform="translate(120.5, 264)"><rect class="basic label-container" style="" x="-86" y="-51" width="172" height="102"/><g class="label" style="" transform="translate(-56, -36)"><rect/><foreignObject width="112" height="72"><div xmlns="http://www.w3.org/1999/xhtml" style="display: table-cell; white-space: nowrap; line-height: 1.5; max-width: 200px; text-align: center;"><span class="nodeLabel"><p>product_vision<br />see and classify<br />the product</p></span></div></foreignObject></g></g><g class="node default" id="my-svg-flowchart-INT-19" data-look="classic" transform="translate(336.9375, 264)"><rect class="basic label-container" style="" x="-77.4375" y="-39" width="154.875" height="78"/><g class="label" style="" transform="translate(-47.4375, -24)"><rect/><foreignObject width="94.875" height="48"><div xmlns="http://www.w3.org/1999/xhtml" style="display: table-cell; white-space: nowrap; line-height: 1.5; max-width: 200px; text-align: center;"><span class="nodeLabel"><p>intake<br />CreativeBrief</p></span></div></foreignObject></g></g><g class="root" transform="translate(459.375, 100)"><g class="clusters"><g class="cluster" id="my-svg-GND" data-look="classic"><rect style="fill:#ffffff !important;stroke:#a5b4fc !important" x="8" y="8" width="255.15625" height="312"/><g class="cluster-label" transform="translate(65.4921875, 8)"><foreignObject width="140.171875" height="24"><div xmlns="http://www.w3.org/1999/xhtml" style="display: table-cell; white-space: nowrap; line-height: 1.5;"><span class="nodeLabel" style="color:#111827 !important"><p>grounding · Parallel</p></span></div></foreignObject></g></g></g><g class="edgePaths"><path d="M135.578,125L135.578,131.5C135.578,138,135.578,151,135.578,164C135.578,177,135.578,190,135.578,196.5L135.578,203" id="my-svg-L_RES_RAG_0" class="edge-thickness-invisible edge-pattern-solid" style=";" data-edge="true" data-et="edge" data-id="L_RES_RAG_0" data-points="W3sieCI6MTM1LjU3ODEyNSwieSI6MTI1fSx7IngiOjEzNS41NzgxMjUsInkiOjE2NH0seyJ4IjoxMzUuNTc4MTI1LCJ5IjoyMDN9XQ==" data-look="classic"/></g><g class="edgeLabels"><g class="edgeLabel"><g class="label" data-id="L_RES_RAG_0" transform="translate(0, 0)"><foreignObject width="0" height="0"><div xmlns="http://www.w3.org/1999/xhtml" class="labelBkg" style="display: table-cell; white-space: nowrap; line-height: 1.5; max-width: 200px; text-align: center;"><span class="edgeLabel"></span></div></foreignObject></g></g></g><g class="nodes"><g class="node default" id="my-svg-flowchart-RES-22" data-look="classic" transform="translate(135.578125, 86)"><rect class="basic label-container" style="" x="-85.515625" y="-39" width="171.03125" height="78"/><g class="label" style="" transform="translate(-55.515625, -24)"><rect/><foreignObject width="111.03125" height="48"><div xmlns="http://www.w3.org/1999/xhtml" style="display: table-cell; white-space: nowrap; line-height: 1.5; max-width: 200px; text-align: center;"><span class="nodeLabel"><p>brand_research<br />google_search</p></span></div></foreignObject></g></g><g class="node default" id="my-svg-flowchart-RAG-23" data-look="classic" transform="translate(135.578125, 242)"><rect class="basic label-container" style="" x="-105.578125" y="-39" width="211.15625" height="78"/><g class="label" style="" transform="translate(-75.578125, -24)"><rect/><foreignObject width="151.15625" height="48"><div xmlns="http://www.w3.org/1999/xhtml" style="display: table-cell; white-space: nowrap; line-height: 1.5; max-width: 200px; text-align: center;"><span class="nodeLabel"><p>brand_rag<br />Vertex AI Search RAG</p></span></div></foreignObject></g></g></g></g><g class="node default" id="my-svg-flowchart-PLAN-27" data-look="classic" transform="translate(852.0390625, 264)"><rect class="basic label-container" style="" x="-76.5078125" y="-39" width="153.015625" height="78"/><g class="label" style="" transform="translate(-46.5078125, -24)"><rect/><foreignObject width="93.015625" height="48"><div xmlns="http://www.w3.org/1999/xhtml" style="display: table-cell; white-space: nowrap; line-height: 1.5; max-width: 200px; text-align: center;"><span class="nodeLabel"><p>shot_planner<br />ShotPlan</p></span></div></foreignObject></g></g><g class="root" transform="translate(973.546875, 22)"><g class="clusters"><g class="cluster" id="my-svg-PROD" data-look="classic"><rect style="fill:#ffffff !important;stroke:#a5b4fc !important" x="8" y="8" width="256.359375" height="468"/><g class="cluster-label" transform="translate(62.609375, 8)"><foreignObject width="147.140625" height="24"><div xmlns="http://www.w3.org/1999/xhtml" style="display: table-cell; white-space: nowrap; line-height: 1.5;"><span class="nodeLabel" style="color:#111827 !important"><p>production · Parallel</p></span></div></foreignObject></g></g></g><g class="edgePaths"><path d="M136.18,125L136.18,131.5C136.18,138,136.18,151,136.18,164C136.18,177,136.18,190,136.18,196.5L136.18,203" id="my-svg-L_IMG_COPY_0" class="edge-thickness-invisible edge-pattern-solid" style=";" data-edge="true" data-et="edge" data-id="L_IMG_COPY_0" data-points="W3sieCI6MTM2LjE3OTY4NzUsInkiOjEyNX0seyJ4IjoxMzYuMTc5Njg3NSwieSI6MTY0fSx7IngiOjEzNi4xNzk2ODc1LCJ5IjoyMDN9XQ==" data-look="classic"/><path d="M136.18,281L136.18,287.5C136.18,294,136.18,307,136.18,320C136.18,333,136.18,346,136.18,352.5L136.18,359" id="my-svg-L_COPY_VID_0" class="edge-thickness-invisible edge-pattern-solid" style=";" data-edge="true" data-et="edge" data-id="L_COPY_VID_0" data-points="W3sieCI6MTM2LjE3OTY4NzUsInkiOjI4MX0seyJ4IjoxMzYuMTc5Njg3NSwieSI6MzIwfSx7IngiOjEzNi4xNzk2ODc1LCJ5IjozNTl9XQ==" data-look="classic"/></g><g class="edgeLabels"><g class="edgeLabel"><g class="label" data-id="L_IMG_COPY_0" transform="translate(0, 0)"><foreignObject width="0" height="0"><div xmlns="http://www.w3.org/1999/xhtml" class="labelBkg" style="display: table-cell; white-space: nowrap; line-height: 1.5; max-width: 200px; text-align: center;"><span class="edgeLabel"></span></div></foreignObject></g></g><g class="edgeLabel"><g class="label" data-id="L_COPY_VID_0" transform="translate(0, 0)"><foreignObject width="0" height="0"><div xmlns="http://www.w3.org/1999/xhtml" class="labelBkg" style="display: table-cell; white-space: nowrap; line-height: 1.5; max-width: 200px; text-align: center;"><span class="edgeLabel"></span></div></foreignObject></g></g></g><g class="nodes"><g class="node default" id="my-svg-flowchart-IMG-30" data-look="classic" transform="translate(136.1796875, 86)"><rect class="basic label-container" style="" x="-106.1796875" y="-39" width="212.359375" height="78"/><g class="label" style="" transform="translate(-76.1796875, -24)"><rect/><foreignObject width="152.359375" height="48"><div xmlns="http://www.w3.org/1999/xhtml" style="display: table-cell; white-space: nowrap; line-height: 1.5; max-width: 200px; text-align: center;"><span class="nodeLabel"><p>image_production ×N<br />product-conditioned</p></span></div></foreignObject></g></g><g class="node default" id="my-svg-flowchart-COPY-31" data-look="classic" transform="translate(136.1796875, 242)"><rect class="basic label-container" style="" x="-96.0859375" y="-39" width="192.171875" height="78"/><g class="label" style="" transform="translate(-66.0859375, -24)"><rect/><foreignObject width="132.171875" height="48"><div xmlns="http://www.w3.org/1999/xhtml" style="display: table-cell; white-space: nowrap; line-height: 1.5; max-width: 200px; text-align: center;"><span class="nodeLabel"><p>copywriter<br />multi-variant copy</p></span></div></foreignObject></g></g><g class="node default" id="my-svg-flowchart-VID-32" data-look="classic" transform="translate(136.1796875, 398)"><rect class="basic label-container" style="" x="-92.2734375" y="-39" width="184.546875" height="78"/><g class="label" style="" transform="translate(-62.2734375, -24)"><rect/><foreignObject width="124.546875" height="48"><div xmlns="http://www.w3.org/1999/xhtml" style="display: table-cell; white-space: nowrap; line-height: 1.5; max-width: 200px; text-align: center;"><span class="nodeLabel"><p>video_production<br />Veo</p></span></div></foreignObject></g></g></g></g><g class="node default" id="my-svg-flowchart-CARD-37" data-look="classic" transform="translate(1390.3984375, 264)"><rect class="basic label-container" style="" x="-99.4921875" y="-39" width="198.984375" height="78"/><g class="label" style="" transform="translate(-69.4921875, -24)"><rect/><foreignObject width="138.984375" height="48"><div xmlns="http://www.w3.org/1999/xhtml" style="display: table-cell; white-space: nowrap; line-height: 1.5; max-width: 200px; text-align: center;"><span class="nodeLabel"><p>card_production ×2<br />styled selling cards</p></span></div></foreignObject></g></g><g class="node default" id="my-svg-flowchart-MAN-42" data-look="classic" transform="translate(1919.734375, 264)"><rect class="basic label-container" style="" x="-103.109375" y="-39" width="206.21875" height="78"/><g class="label" style="" transform="translate(-73.109375, -24)"><rect/><foreignObject width="146.21875" height="48"><div xmlns="http://www.w3.org/1999/xhtml" style="display: table-cell; white-space: nowrap; line-height: 1.5; max-width: 200px; text-align: center;"><span class="nodeLabel"><p>delivery<br />assemble + manifest</p></span></div></foreignObject></g></g></g></g><g class="root" transform="translate(0, 612)"><g class="clusters"><g class="cluster" id="my-svg-MP" data-look="classic"><rect style="fill:#eef2ff !important;stroke:#6366f1 !important" x="8" y="8" width="1821.823715209961" height="186.5"/><g class="cluster-label" transform="translate(757.3259201049805, 8)"><foreignObject width="323.171875" height="24"><div xmlns="http://www.w3.org/1999/xhtml" style="display: table-cell; white-space: nowrap; line-height: 1.5;"><span class="nodeLabel" style="color:#111827 !important"><p>AI-Agent Marketplace · Cloud Run + Firestore</p></span></div></foreignObject></g></g></g><g class="edgePaths"><path d="M159.589,106L179.23,105.917C198.871,105.833,238.152,105.667,276.85,105.583C315.548,105.5,353.662,105.5,372.72,105.5L391.777,105.5" id="my-svg-L_BUYER_CON_0" class="edge-thickness-normal edge-pattern-solid edge-thickness-normal edge-pattern-solid flowchart-link" style=";" data-edge="true" data-et="edge" data-id="L_BUYER_CON_0" data-points="W3sieCI6MTU5LjU4OTMzNzQzMTgyNzE1LCJ5IjoxMDZ9LHsieCI6Mjc3LjQzMzA5MDIwOTk2MDk0LCJ5IjoxMDUuNX0seyJ4IjozOTUuNzc2ODQwMjA5OTYwOTQsInkiOjEwNS41fV0=" data-look="classic" marker-end="url(#my-svg_flowchart-v2-pointEnd)"/><path d="M655.777,105.5L669.436,105.5C683.095,105.5,710.412,105.5,737.147,105.579C763.881,105.659,790.032,105.817,803.108,105.896L816.183,105.976" id="my-svg-L_CON_ESC_0" class="edge-thickness-normal edge-pattern-solid edge-thickness-normal edge-pattern-solid flowchart-link" style=";" data-edge="true" data-et="edge" data-id="L_CON_ESC_0" data-points="W3sieCI6NjU1Ljc3Njg0MDIwOTk2MDksInkiOjEwNS41fSx7IngiOjczNy43Mjk5NjUyMDk5NjA5LCJ5IjoxMDUuNX0seyJ4Ijo4MjAuMTgzMDkwMjA5OTYwOSwieSI6MTA2fV0=" data-look="classic" marker-end="url(#my-svg_flowchart-v2-pointEnd)"/><path d="M1082.028,88.69L1098.023,86.409C1114.017,84.127,1146.006,79.563,1175.97,77.282C1205.933,75,1233.871,75,1247.839,75L1261.808,75" id="my-svg-L_ESC_ORCH_0" class="edge-thickness-normal edge-pattern-solid edge-thickness-normal edge-pattern-solid flowchart-link" style=";" data-edge="true" data-et="edge" data-id="L_ESC_ORCH_0" data-points="W3sieCI6MTA4Mi4wMjgyMjUyNzQyMTQ3LCJ5Ijo4OC42OTAyNzAxMjg1MDc3M30seyJ4IjoxMTc3Ljk5NTU5MDIwOTk2MSwieSI6NzV9LHsieCI6MTI2NS44MDgwOTAyMDk5NjEsInkiOjc1fV0=" data-look="classic" marker-end="url(#my-svg_flowchart-v2-pointEnd)"/><path d="M1460.277,75L1474.688,75C1489.1,75,1517.923,75,1546.089,77.446C1574.256,79.892,1601.766,84.784,1615.521,87.23L1629.276,89.675" id="my-svg-L_ORCH_DLV_0" class="edge-thickness-normal edge-pattern-solid edge-thickness-normal edge-pattern-solid flowchart-link" style=";" data-edge="true" data-et="edge" data-id="L_ORCH_DLV_0" data-points="W3sieCI6MTQ2MC4yNzY4NDAyMDk5NjEsInkiOjc1fSx7IngiOjE1NDYuNzQ1NTkwMjA5OTYxLCJ5Ijo3NX0seyJ4IjoxNjMzLjIxNDM0MDIwOTk2MSwieSI6OTAuMzc1NzIzMDY5OTE1NzR9XQ==" data-look="classic" marker-end="url(#my-svg_flowchart-v2-pointEnd)"/><path d="M1633.214,120.624L1618.803,123.187C1604.391,125.75,1575.569,130.875,1530.54,133.437C1485.511,136,1424.277,136,1362.819,136C1301.36,136,1239.678,136,1193.503,133.972C1147.328,131.945,1116.661,127.889,1101.327,125.862L1085.994,123.834" id="my-svg-L_DLV_ESC_0" class="edge-thickness-normal edge-pattern-solid edge-thickness-normal edge-pattern-solid flowchart-link" style=";" data-edge="true" data-et="edge" data-id="L_DLV_ESC_0" data-points="W3sieCI6MTYzMy4yMTQzNDAyMDk5NjEsInkiOjEyMC42MjQyNzY5MzAwODQyNn0seyJ4IjoxNTQ2Ljc0NTU5MDIwOTk2MSwieSI6MTM2fSx7IngiOjEzNjMuMDQyNDY1MjA5OTYxLCJ5IjoxMzZ9LHsieCI6MTE3Ny45OTU1OTAyMDk5NjEsInkiOjEzNn0seyJ4IjoxMDgyLjAyODIyNTI3NDIxNDcsInkiOjEyMy4zMDk3Mjk4NzE0OTIyN31d" data-look="classic" marker-end="url(#my-svg_flowchart-v2-pointEnd)"/></g><g class="edgeLabels"><g class="edgeLabel" transform="translate(277.43309020996094, 105.5)"><g class="label" data-id="L_BUYER_CON_0" transform="translate(-91.84375, -12)"><foreignObject width="183.6875" height="24"><div xmlns="http://www.w3.org/1999/xhtml" class="labelBkg" style="display: table-cell; white-space: nowrap; line-height: 1.5; max-width: 200px; text-align: center;"><span class="edgeLabel"><p>photo + brief + brand link</p></span></div></foreignObject></g></g><g class="edgeLabel" transform="translate(737.7299652099609, 105.5)"><g class="label" data-id="L_CON_ESC_0" transform="translate(-55.453125, -12)"><foreignObject width="110.90625" height="24"><div xmlns="http://www.w3.org/1999/xhtml" class="labelBkg" style="display: table-cell; white-space: nowrap; line-height: 1.5; max-width: 200px; text-align: center;"><span class="edgeLabel"><p>priced proposal</p></span></div></foreignObject></g></g><g class="edgeLabel" transform="translate(1177.995590209961, 75)"><g class="label" data-id="L_ESC_ORCH_0" transform="translate(-61.3125, -12)"><foreignObject width="122.625" height="24"><div xmlns="http://www.w3.org/1999/xhtml" class="labelBkg" style="display: table-cell; white-space: nowrap; line-height: 1.5; max-width: 200px; text-align: center;"><span class="edgeLabel"><p>funded, start job</p></span></div></foreignObject></g></g><g class="edgeLabel" transform="translate(1546.745590209961, 75)"><g class="label" data-id="L_ORCH_DLV_0" transform="translate(-59.96875, -12)"><foreignObject width="119.9375" height="24"><div xmlns="http://www.w3.org/1999/xhtml" class="labelBkg" style="display: table-cell; white-space: nowrap; line-height: 1.5; max-width: 200px; text-align: center;"><span class="edgeLabel"><p>finished package</p></span></div></foreignObject></g></g><g class="edgeLabel" transform="translate(1363.042465209961, 136)"><g class="label" data-id="L_DLV_ESC_0" transform="translate(-81.359375, -12)"><foreignObject width="162.71875" height="24"><div xmlns="http://www.w3.org/1999/xhtml" class="labelBkg" style="display: table-cell; white-space: nowrap; line-height: 1.5; max-width: 200px; text-align: center;"><span class="edgeLabel"><p>buyer accepts, release</p></span></div></foreignObject></g></g></g><g class="nodes"><g class="node default" id="my-svg-flowchart-BUYER-3" data-look="classic" transform="translate(96.79467010498047, 105.5)"><g class="basic label-container outer-path"><path d="M-42.8046875 -19.5 C-17.854094313513226 -19.5, 7.096498872973548 -19.5, 42.8046875 -19.5 C42.8046875 -19.5, 42.8046875 -19.5, 42.8046875 -19.5 C43.29850349093902 -19.484164282325104, 43.79231948187804 -19.468328564650204, 44.0540567896239 -19.45993515863156 C44.30553282946057 -19.435675567512703, 44.55700886929724 -19.411415976393844, 45.298292152847864 -19.3399052695533 C45.64416876057648 -19.283986621928893, 45.99004536830508 -19.228067974304484, 46.53228075967676 -19.140403561325776 C46.7972244030183 -19.079931903651918, 47.062168046359844 -19.01946024597806, 47.75095188623539 -18.862249829261074 C48.17252345129898 -18.737129601624503, 48.59409501636257 -18.61200937398793, 48.949297751460605 -18.50658706670804 C49.390534465758115 -18.34420787709908, 49.831771180055625 -18.18182868749012, 50.1223940951478 -18.074876768247425 C50.546089954766785 -17.887319179685214, 50.96978581438577 -17.699761591123004, 51.26542041279238 -17.568892924097174 C51.56161359379843 -17.41436913128711, 51.857806774804466 -17.259845338477042, 52.37367976407678 -16.990714730406097 C52.765996642588206 -16.752889933142587, 53.15831352109962 -16.51506513587908, 53.4426180736057 -16.342718045390892 C53.809392381402525 -16.08687216567571, 54.176166689199356 -15.831026285960531, 54.46784284457871 -15.627565626425154 C54.67008437384916 -15.466283388705092, 54.8723259031196 -15.305001150985031, 55.445141208501866 -14.848196188198123 C55.74392692392711 -14.57684690688574, 56.04271263935237 -14.305497625573356, 56.37049723676799 -14.007812326905688 C56.71365008688086 -13.653478835791194, 57.05680293699374 -13.2991453446767, 57.24010844296865 -13.10986736009568 C57.52513317273497 -12.775061094145592, 57.81015790250129 -12.440254828195503, 58.05040140812658 -12.158051136245305 C58.23684196682069 -11.908237772679515, 58.42328252551479 -11.658424409113726, 58.798046464640635 -11.156274872382312 C59.05508648570985 -10.76139237510994, 59.312126506779066 -10.366509877837569, 59.47997137860425 -10.108655082055241 C59.69894398125229 -9.71984705267322, 59.91791658390034 -9.331039023291199, 60.093373974273504 -9.019496659696287 C60.204513775513334 -8.788712484410986, 60.315653576753164 -8.557928309125685, 60.63573364880834 -7.893275190886684 C60.78049888948856 -7.535702247561011, 60.925264130168785 -7.1781293042353385, 61.104821729970325 -6.734618561215508 C61.205865719578625 -6.430290163688746, 61.306909709186925 -6.125961766161986, 61.49871063421488 -5.548287939305138 C61.59009333370156 -5.199806100649944, 61.68147603318824 -4.85132426199475, 61.81578178754556 -4.339158212148133 C61.8773790287015 -4.022869397393919, 61.938976269857434 -3.7065805826397047, 62.054732276581774 -3.1121979531509023 C62.087756968255775 -2.856064965990373, 62.12078165992977 -2.5999319788298436, 62.21458020250937 -1.872449005199798 C62.235989757534824 -1.5389779041965044, 62.25739931256029 -1.2055068031932106, 62.29466871591342 -0.6250057626472757 C62.29466871591342 -0.2879813277718824, 62.29466871591342 0.0490431071035109, 62.29466871591342 0.625005762647271 C62.26355194546674 1.1096745793593632, 62.23243517502005 1.5943433960714555, 62.21458020250937 1.8724490051997846 C62.15785566722954 2.3123932993036633, 62.10113113194971 2.752337593407542, 62.054732276581774 3.1121979531508885 C61.96743463176462 3.560452908923227, 61.88013698694746 4.008707864695565, 61.81578178754556 4.339158212148129 C61.71538777404897 4.722004096651308, 61.61499376055239 5.104849981154489, 61.49871063421489 5.548287939305125 C61.413126844218354 5.806052678849539, 61.32754305422182 6.063817418393953, 61.104821729970325 6.734618561215495 C60.917730172860374 7.196738324446253, 60.73063861575043 7.658858087677011, 60.63573364880834 7.893275190886679 C60.468244921430845 8.241069116970719, 60.300756194053356 8.588863043054758, 60.093373974273504 9.019496659696284 C59.851017361492495 9.449825366957171, 59.608660748711486 9.88015407421806, 59.47997137860425 10.108655082055236 C59.223339353436074 10.502910788061365, 58.9667073282679 10.897166494067495, 58.79804646464064 11.156274872382301 C58.542291251722766 11.498963557913042, 58.28653603880488 11.841652243443782, 58.05040140812658 12.158051136245302 C57.7539209981864 12.506313895974278, 57.45744058824622 12.854576655703255, 57.24010844296866 13.10986736009567 C56.946700643382535 13.41283500239669, 56.65329284379641 13.715802644697712, 56.37049723676799 14.007812326905684 C56.13508031926151 14.221611742594755, 55.89966340175504 14.435411158283824, 55.44514120850189 14.848196188198111 C55.11671250291326 15.110109341050135, 54.78828379732463 15.37202249390216, 54.46784284457871 15.627565626425152 C54.09788365506015 15.885633141758108, 53.72792446554159 16.143700657091063, 53.44261807360571 16.34271804539089 C53.118602782664254 16.539138018884803, 52.7945874917228 16.735557992378713, 52.37367976407678 16.990714730406093 C51.984525832279694 17.193736087359646, 51.5953719004826 17.396757444313202, 51.26542041279239 17.56889292409717 C50.849689867683 17.752924504208643, 50.43395932257361 17.936956084320112, 50.122394095147804 18.07487676824742 C49.87336624006448 18.166521320906345, 49.62433838498115 18.258165873565265, 48.94929775146062 18.506587066708033 C48.70159054370329 18.580105265728744, 48.45388333594595 18.653623464749455, 47.75095188623541 18.86224982926107 C47.37704914152449 18.947590690797906, 47.00314639681357 19.032931552334738, 46.532280759676766 19.140403561325773 C46.1775370203279 19.197755778024913, 45.82279328097902 19.255107994724053, 45.29829215284788 19.3399052695533 C44.82196939600588 19.385855553043918, 44.34564663916389 19.431805836534537, 44.0540567896239 19.45993515863156 C43.67698008495011 19.47202727461517, 43.29990338027632 19.484119390598774, 42.80468750000001 19.5 C42.80468750000001 19.5, 42.80468750000001 19.5, 42.8046875 19.5 C21.62920663832153 19.5, 0.45372577664306135 19.5, -42.80468749999999 19.5 C-43.20232993336222 19.487248381126115, -43.59997236672445 19.474496762252233, -44.05405678962389 19.45993515863156 C-44.33419643563033 19.432910423898534, -44.614336081636765 19.405885689165512, -45.29829215284787 19.3399052695533 C-45.62612976952815 19.28690302610712, -45.953967386208426 19.23390078266094, -46.53228075967676 19.140403561325773 C-46.857551037142414 19.06616274308116, -47.18282131460807 18.991921924836554, -47.750951886235384 18.862249829261074 C-48.00637615680545 18.786441246505234, -48.26180042737552 18.710632663749397, -48.94929775146059 18.506587066708043 C-49.299699742603565 18.37763589488693, -49.65010173374654 18.248684723065818, -50.1223940951478 18.074876768247425 C-50.44346678859227 17.93274741114261, -50.76453948203673 17.790618054037797, -51.26542041279238 17.568892924097174 C-51.55829321957491 17.416101368392717, -51.851166026357426 17.263309812688263, -52.37367976407678 16.990714730406097 C-52.7799939780127 16.744404666150782, -53.18630819194862 16.49809460189547, -53.442618073605686 16.3427180453909 C-53.812266437970166 16.08486734823003, -54.181914802334646 15.827016651069158, -54.46784284457871 15.627565626425156 C-54.72010189820601 15.426395744052725, -54.97236095183331 15.225225861680293, -55.445141208501866 14.848196188198125 C-55.69294247284482 14.623149636384026, -55.94074373718777 14.398103084569927, -56.370497236767974 14.007812326905697 C-56.64655364752821 13.722761418142927, -56.92261005828844 13.437710509380159, -57.240108442968655 13.109867360095677 C-57.54928552660542 12.746690364981491, -57.858462610242185 12.383513369867305, -58.050401408126575 12.158051136245307 C-58.21868370810289 11.932568185109965, -58.3869660080792 11.70708523397462, -58.798046464640635 11.156274872382316 C-58.95169894388587 10.9202234027938, -59.10535142313112 10.684171933205283, -59.47997137860425 10.108655082055249 C-59.66887463728156 9.773238217744513, -59.857777895958876 9.437821353433778, -60.093373974273504 9.019496659696289 C-60.2222902605788 8.751799232816687, -60.35120654688411 8.484101805937085, -60.63573364880834 7.893275190886686 C-60.805401635885765 7.474191982498077, -60.97506962296319 7.055108774109469, -61.104821729970325 6.73461856121551 C-61.255028321777445 6.282220238862806, -61.40523491358457 5.829821916510102, -61.49871063421488 5.5482879393051325 C-61.565832694458145 5.292322432712632, -61.632954754701416 5.036356926120132, -61.81578178754556 4.339158212148136 C-61.90016014279988 3.905893191288885, -61.98453849805421 3.472628170429634, -62.054732276581774 3.112197953150904 C-62.1106445501223 2.678553400697832, -62.16655682366283 2.2449088482447603, -62.21458020250937 1.872449005199809 C-62.23387599095864 1.5719015248223374, -62.25317177940791 1.2713540444448657, -62.29466871591342 0.6250057626472781 C-62.29466871591342 0.2406248869562604, -62.29466871591342 -0.14375598873475737, -62.29466871591342 -0.6250057626472687 C-62.27639787011514 -0.9095889339166952, -62.25812702431686 -1.1941721051861216, -62.21458020250937 -1.8724490051997822 C-62.1662759942809 -2.2470869054749456, -62.117971786052436 -2.621724805750109, -62.054732276581774 -3.112197953150895 C-61.97557456553856 -3.51865606936966, -61.89641685449534 -3.925114185588424, -61.81578178754556 -4.339158212148126 C-61.70500942395513 -4.761581243564495, -61.59423706036471 -5.184004274980864, -61.49871063421489 -5.548287939305123 C-61.37050953271717 -5.934409230944621, -61.24230843121946 -6.320530522584121, -61.10482172997033 -6.734618561215485 C-60.919706754782275 -7.191856128884562, -60.73459177959421 -7.6490936965536385, -60.63573364880834 -7.893275190886676 C-60.50209128245392 -8.170786424110188, -60.3684489160995 -8.4482976573337, -60.093373974273504 -9.019496659696282 C-59.87761275820811 -9.402602547012657, -59.66185154214271 -9.785708434329033, -59.47997137860425 -10.108655082055243 C-59.311778317389916 -10.367044790241252, -59.143585256175584 -10.625434498427262, -58.79804646464064 -11.156274872382308 C-58.50414077994833 -11.550081714511313, -58.21023509525602 -11.943888556640315, -58.05040140812659 -12.158051136245302 C-57.853918384515 -12.388851275980244, -57.6574353609034 -12.619651415715186, -57.24010844296866 -13.10986736009567 C-57.033319214358926 -13.323394216346635, -56.82652998574918 -13.5369210725976, -56.370497236767996 -14.007812326905677 C-56.12560263198173 -14.23021912741639, -55.88070802719546 -14.452625927927103, -55.44514120850189 -14.848196188198107 C-55.23035244756495 -15.01948450927634, -55.01556368662801 -15.190772830354572, -54.46784284457872 -15.627565626425149 C-54.20378602445984 -15.811760233304573, -53.93972920434095 -15.995954840183998, -53.442618073605715 -16.342718045390885 C-53.131342215963166 -16.53141529955378, -52.82006635832062 -16.720112553716678, -52.37367976407679 -16.99071473040609 C-52.112263573783416 -17.12709538943708, -51.85084738349004 -17.263476048468075, -51.26542041279239 -17.56889292409717 C-51.018135995228825 -17.678358400320942, -50.77085157766526 -17.787823876544714, -50.122394095147804 -18.07487676824742 C-49.73201833794422 -18.21853865549228, -49.34164258074063 -18.362200542737142, -48.94929775146062 -18.506587066708033 C-48.5501174079886 -18.625061697310144, -48.15093706451659 -18.74353632791226, -47.75095188623541 -18.862249829261067 C-47.2684991541968 -18.97236651705058, -46.7860464221582 -19.08248320484009, -46.532280759676766 -19.140403561325773 C-46.05376563747015 -19.217766175343943, -45.57525051526354 -19.295128789362114, -45.29829215284788 -19.3399052695533 C-44.95663967096196 -19.372864073583607, -44.614987189076054 -19.405822877613915, -44.0540567896239 -19.45993515863156 C-43.61096327923105 -19.47414430508066, -43.1678697688382 -19.48835345152976, -42.80468750000001 -19.5 C-42.80468750000001 -19.5, -42.8046875 -19.5, -42.8046875 -19.5" stroke="none" stroke-width="0" fill="#ffffff" style="fill:#ffffff !important;stroke:#6366f1 !important"/><path d="M-42.8046875 -19.5 C-13.104509139852325 -19.5, 16.59566922029535 -19.5, 42.8046875 -19.5 M-42.8046875 -19.5 C-9.416697089682103 -19.5, 23.971293320635795 -19.5, 42.8046875 -19.5 M42.8046875 -19.5 C42.8046875 -19.5, 42.8046875 -19.5, 42.8046875 -19.5 M42.8046875 -19.5 C42.8046875 -19.5, 42.8046875 -19.5, 42.8046875 -19.5 M42.8046875 -19.5 C43.1951330579999 -19.48747917091112, 43.585578615999786 -19.474958341822237, 44.0540567896239 -19.45993515863156 M42.8046875 -19.5 C43.10623083099625 -19.490330092293437, 43.407774161992506 -19.480660184586874, 44.0540567896239 -19.45993515863156 M44.0540567896239 -19.45993515863156 C44.52926971790017 -19.41409193896791, 45.00448264617645 -19.368248719304262, 45.298292152847864 -19.3399052695533 M44.0540567896239 -19.45993515863156 C44.4550215236138 -19.4212545729742, 44.85598625760371 -19.382573987316835, 45.298292152847864 -19.3399052695533 M45.298292152847864 -19.3399052695533 C45.61294802599545 -19.28903414817554, 45.927603899143044 -19.23816302679778, 46.53228075967676 -19.140403561325776 M45.298292152847864 -19.3399052695533 C45.61426678183134 -19.288820941959095, 45.930241410814816 -19.23773661436489, 46.53228075967676 -19.140403561325776 M46.53228075967676 -19.140403561325776 C46.940118929747314 -19.047317160399952, 47.34795709981787 -18.954230759474125, 47.75095188623539 -18.862249829261074 M46.53228075967676 -19.140403561325776 C46.90504000704622 -19.055323695595114, 47.27779925441567 -18.97024382986445, 47.75095188623539 -18.862249829261074 M47.75095188623539 -18.862249829261074 C48.01610461256656 -18.783553891901047, 48.28125733889773 -18.704857954541016, 48.949297751460605 -18.50658706670804 M47.75095188623539 -18.862249829261074 C48.13916100210422 -18.74703140142244, 48.52737011797304 -18.631812973583806, 48.949297751460605 -18.50658706670804 M48.949297751460605 -18.50658706670804 C49.367788528573094 -18.352578592244306, 49.78627930568558 -18.198570117780573, 50.1223940951478 -18.074876768247425 M48.949297751460605 -18.50658706670804 C49.373387829850095 -18.350517997614997, 49.79747790823959 -18.19444892852195, 50.1223940951478 -18.074876768247425 M50.1223940951478 -18.074876768247425 C50.56604603859061 -17.8784852133526, 51.00969798203343 -17.682093658457777, 51.26542041279238 -17.568892924097174 M50.1223940951478 -18.074876768247425 C50.523656134217646 -17.897249966566676, 50.924918173287494 -17.71962316488593, 51.26542041279238 -17.568892924097174 M51.26542041279238 -17.568892924097174 C51.64251907083484 -17.372160795739642, 52.01961772887729 -17.17542866738211, 52.37367976407678 -16.990714730406097 M51.26542041279238 -17.568892924097174 C51.57909075082115 -17.405251309663004, 51.89276108884993 -17.24160969522883, 52.37367976407678 -16.990714730406097 M52.37367976407678 -16.990714730406097 C52.71723529462109 -16.782449348833737, 53.060790825165405 -16.574183967261376, 53.4426180736057 -16.342718045390892 M52.37367976407678 -16.990714730406097 C52.68607619316067 -16.80133817925025, 52.998472622244556 -16.611961628094406, 53.4426180736057 -16.342718045390892 M53.4426180736057 -16.342718045390892 C53.76274428332981 -16.11941185952762, 54.08287049305392 -15.896105673664348, 54.46784284457871 -15.627565626425154 M53.4426180736057 -16.342718045390892 C53.779216303587674 -16.107921691257996, 54.115814533569655 -15.873125337125101, 54.46784284457871 -15.627565626425154 M54.46784284457871 -15.627565626425154 C54.697257499609215 -15.44461354401869, 54.92667215463972 -15.261661461612226, 55.445141208501866 -14.848196188198123 M54.46784284457871 -15.627565626425154 C54.71887632454619 -15.42737310643255, 54.969909804513655 -15.227180586439944, 55.445141208501866 -14.848196188198123 M55.445141208501866 -14.848196188198123 C55.68727836587072 -14.628293628473848, 55.92941552323957 -14.408391068749573, 56.37049723676799 -14.007812326905688 M55.445141208501866 -14.848196188198123 C55.67975470378192 -14.635126419317704, 55.914368199061975 -14.422056650437284, 56.37049723676799 -14.007812326905688 M56.37049723676799 -14.007812326905688 C56.68747578630775 -13.680505950082974, 57.00445433584752 -13.35319957326026, 57.24010844296865 -13.10986736009568 M56.37049723676799 -14.007812326905688 C56.714435967839826 -13.652667349179039, 57.05837469891166 -13.297522371452391, 57.24010844296865 -13.10986736009568 M57.24010844296865 -13.10986736009568 C57.421034921535686 -12.897340823362567, 57.60196140010272 -12.684814286629456, 58.05040140812658 -12.158051136245305 M57.24010844296865 -13.10986736009568 C57.48418469533832 -12.823161505730065, 57.728260947707994 -12.536455651364447, 58.05040140812658 -12.158051136245305 M58.05040140812658 -12.158051136245305 C58.24866800149927 -11.892391963584139, 58.44693459487196 -11.62673279092297, 58.798046464640635 -11.156274872382312 M58.05040140812658 -12.158051136245305 C58.25560080775427 -11.883102634794076, 58.460800207381965 -11.608154133342849, 58.798046464640635 -11.156274872382312 M58.798046464640635 -11.156274872382312 C58.96089586701333 -10.90609445915038, 59.12374526938601 -10.655914045918445, 59.47997137860425 -10.108655082055241 M58.798046464640635 -11.156274872382312 C58.93814442391563 -10.941046785366341, 59.07824238319062 -10.72581869835037, 59.47997137860425 -10.108655082055241 M59.47997137860425 -10.108655082055241 C59.649467796192994 -9.807697029253006, 59.81896421378175 -9.506738976450771, 60.093373974273504 -9.019496659696287 M59.47997137860425 -10.108655082055241 C59.61644289951601 -9.86633607743641, 59.75291442042777 -9.624017072817578, 60.093373974273504 -9.019496659696287 M60.093373974273504 -9.019496659696287 C60.272794370264954 -8.646926368438557, 60.452214766256404 -8.274356077180828, 60.63573364880834 -7.893275190886684 M60.093373974273504 -9.019496659696287 C60.2841653412768 -8.623314303832656, 60.4749567082801 -8.227131947969024, 60.63573364880834 -7.893275190886684 M60.63573364880834 -7.893275190886684 C60.821746738788995 -7.433819262316025, 61.00775982876965 -6.974363333745366, 61.104821729970325 -6.734618561215508 M60.63573364880834 -7.893275190886684 C60.80845481230466 -7.466650577714256, 60.98117597580098 -7.040025964541828, 61.104821729970325 -6.734618561215508 M61.104821729970325 -6.734618561215508 C61.25816715168165 -6.272766583295981, 61.411512573392976 -5.810914605376453, 61.49871063421488 -5.548287939305138 M61.104821729970325 -6.734618561215508 C61.189388286975415 -6.479917565367244, 61.27395484398051 -6.22521656951898, 61.49871063421488 -5.548287939305138 M61.49871063421488 -5.548287939305138 C61.58126844708107 -5.233459218063919, 61.663826259947264 -4.9186304968227, 61.81578178754556 -4.339158212148133 M61.49871063421488 -5.548287939305138 C61.608479971214166 -5.129689882995256, 61.71824930821346 -4.711091826685374, 61.81578178754556 -4.339158212148133 M61.81578178754556 -4.339158212148133 C61.89391442825328 -3.9379636154534445, 61.972047068961004 -3.5367690187587564, 62.054732276581774 -3.1121979531509023 M61.81578178754556 -4.339158212148133 C61.87489773266206 -4.035610328134316, 61.934013677778566 -3.732062444120499, 62.054732276581774 -3.1121979531509023 M62.054732276581774 -3.1121979531509023 C62.11829842714177 -2.6191914419638347, 62.18186457770176 -2.126184930776767, 62.21458020250937 -1.872449005199798 M62.054732276581774 -3.1121979531509023 C62.11215661022276 -2.6668261611486925, 62.16958094386375 -2.2214543691464828, 62.21458020250937 -1.872449005199798 M62.21458020250937 -1.872449005199798 C62.24282645656547 -1.4324907983101811, 62.27107271062156 -0.9925325914205644, 62.29466871591342 -0.6250057626472757 M62.21458020250937 -1.872449005199798 C62.23076362735866 -1.620379100146584, 62.24694705220796 -1.36830919509337, 62.29466871591342 -0.6250057626472757 M62.29466871591342 -0.6250057626472757 C62.29466871591342 -0.3711907807376067, 62.29466871591342 -0.1173757988279377, 62.29466871591342 0.625005762647271 M62.29466871591342 -0.6250057626472757 C62.29466871591342 -0.2529641007387084, 62.29466871591342 0.1190775611698589, 62.29466871591342 0.625005762647271 M62.29466871591342 0.625005762647271 C62.27039169191331 1.0031400075100314, 62.2461146679132 1.3812742523727917, 62.21458020250937 1.8724490051997846 M62.29466871591342 0.625005762647271 C62.263032230414204 1.1177695608089964, 62.23139574491499 1.6105333589707218, 62.21458020250937 1.8724490051997846 M62.21458020250937 1.8724490051997846 C62.1771927160812 2.162418966942374, 62.139805229653035 2.4523889286849627, 62.054732276581774 3.1121979531508885 M62.21458020250937 1.8724490051997846 C62.18096598103976 2.1331542690391903, 62.147351759570164 2.3938595328785954, 62.054732276581774 3.1121979531508885 M62.054732276581774 3.1121979531508885 C61.99419379801627 3.4230502457727736, 61.93365531945077 3.7339025383946587, 61.81578178754556 4.339158212148129 M62.054732276581774 3.1121979531508885 C61.97782383209238 3.50710656099843, 61.900915387602986 3.902015168845972, 61.81578178754556 4.339158212148129 M61.81578178754556 4.339158212148129 C61.69874043529155 4.785487614335622, 61.58169908303754 5.231817016523115, 61.49871063421489 5.548287939305125 M61.81578178754556 4.339158212148129 C61.74591783893758 4.605579727417225, 61.6760538903296 4.87200124268632, 61.49871063421489 5.548287939305125 M61.49871063421489 5.548287939305125 C61.37363508881678 5.924995553962336, 61.24855954341868 6.301703168619546, 61.104821729970325 6.734618561215495 M61.49871063421489 5.548287939305125 C61.40590958616026 5.827789910206608, 61.31310853810563 6.1072918811080905, 61.104821729970325 6.734618561215495 M61.104821729970325 6.734618561215495 C60.974358465079455 7.056865347831589, 60.84389520018858 7.379112134447683, 60.63573364880834 7.893275190886679 M61.104821729970325 6.734618561215495 C61.00455639245283 6.982275883382144, 60.90429105493533 7.229933205548792, 60.63573364880834 7.893275190886679 M60.63573364880834 7.893275190886679 C60.43386635413414 8.312456947545831, 60.23199905945994 8.731638704204984, 60.093373974273504 9.019496659696284 M60.63573364880834 7.893275190886679 C60.505797804823246 8.163089751103417, 60.37586196083815 8.432904311320154, 60.093373974273504 9.019496659696284 M60.093373974273504 9.019496659696284 C59.86432362619032 9.426198746580779, 59.63527327810713 9.832900833465274, 59.47997137860425 10.108655082055236 M60.093373974273504 9.019496659696284 C59.94935160490228 9.275222960361203, 59.80532923553106 9.530949261026123, 59.47997137860425 10.108655082055236 M59.47997137860425 10.108655082055236 C59.21382576713678 10.5175262113727, 58.94768015566932 10.926397340690164, 58.79804646464064 11.156274872382301 M59.47997137860425 10.108655082055236 C59.326714312055095 10.344099091559388, 59.17345724550594 10.57954310106354, 58.79804646464064 11.156274872382301 M58.79804646464064 11.156274872382301 C58.62211389358092 11.392008489815385, 58.4461813225212 11.62774210724847, 58.05040140812658 12.158051136245302 M58.79804646464064 11.156274872382301 C58.5791712346008 11.449547740692033, 58.36029600456095 11.742820609001765, 58.05040140812658 12.158051136245302 M58.05040140812658 12.158051136245302 C57.82292225677384 12.425261091354626, 57.595443105421104 12.69247104646395, 57.24010844296866 13.10986736009567 M58.05040140812658 12.158051136245302 C57.77131044190969 12.485887265889522, 57.4922194756928 12.81372339553374, 57.24010844296866 13.10986736009567 M57.24010844296866 13.10986736009567 C56.98690242502294 13.371323362225317, 56.73369640707722 13.632779364354962, 56.37049723676799 14.007812326905684 M57.24010844296866 13.10986736009567 C57.065532147132515 13.290131718526936, 56.89095585129637 13.470396076958203, 56.37049723676799 14.007812326905684 M56.37049723676799 14.007812326905684 C56.000939354566704 14.343435017555143, 55.631381472365426 14.679057708204603, 55.44514120850189 14.848196188198111 M56.37049723676799 14.007812326905684 C56.07708978905848 14.274277207779798, 55.78368234134898 14.540742088653912, 55.44514120850189 14.848196188198111 M55.44514120850189 14.848196188198111 C55.207457711831765 15.03774245176905, 54.96977421516165 15.22728871533999, 54.46784284457871 15.627565626425152 M55.44514120850189 14.848196188198111 C55.12901132009439 15.100301361633448, 54.812881431686904 15.352406535068788, 54.46784284457871 15.627565626425152 M54.46784284457871 15.627565626425152 C54.20252685063836 15.812638578453678, 53.937210856698 15.997711530482203, 53.44261807360571 16.34271804539089 M54.46784284457871 15.627565626425152 C54.17474765811642 15.83201614061512, 53.88165247165412 16.03646665480509, 53.44261807360571 16.34271804539089 M53.44261807360571 16.34271804539089 C53.18355281917459 16.499764925063456, 52.92448756474347 16.65681180473602, 52.37367976407678 16.990714730406093 M53.44261807360571 16.34271804539089 C53.15683411640162 16.515961959700956, 52.87105015919752 16.689205874011027, 52.37367976407678 16.990714730406093 M52.37367976407678 16.990714730406093 C51.98415735327054 17.1939283226227, 51.594634942464296 17.397141914839303, 51.26542041279239 17.56889292409717 M52.37367976407678 16.990714730406093 C51.97720279626444 17.197556510558172, 51.5807258284521 17.404398290710255, 51.26542041279239 17.56889292409717 M51.26542041279239 17.56889292409717 C50.9620091445387 17.70320409217759, 50.65859787628501 17.83751526025801, 50.122394095147804 18.07487676824742 M51.26542041279239 17.56889292409717 C51.03187559834098 17.672276285594034, 50.798330783889575 17.775659647090897, 50.122394095147804 18.07487676824742 M50.122394095147804 18.07487676824742 C49.68089662968628 18.237351916695093, 49.23939916422475 18.39982706514277, 48.94929775146062 18.506587066708033 M50.122394095147804 18.07487676824742 C49.87032263889948 18.1676413942698, 49.61825118265116 18.260406020292184, 48.94929775146062 18.506587066708033 M48.94929775146062 18.506587066708033 C48.69034623813892 18.58344251659768, 48.431394724817224 18.66029796648733, 47.75095188623541 18.86224982926107 M48.94929775146062 18.506587066708033 C48.53097301006228 18.630743654123684, 48.112648268663946 18.754900241539335, 47.75095188623541 18.86224982926107 M47.75095188623541 18.86224982926107 C47.43817790619763 18.93363844916373, 47.125403926159855 19.005027069066387, 46.532280759676766 19.140403561325773 M47.75095188623541 18.86224982926107 C47.27606463932149 18.970639744440277, 46.801177392407574 19.079029659619483, 46.532280759676766 19.140403561325773 M46.532280759676766 19.140403561325773 C46.23815553240313 19.187955447096172, 45.944030305129495 19.235507332866568, 45.29829215284788 19.3399052695533 M46.532280759676766 19.140403561325773 C46.23165757794705 19.18900598598024, 45.93103439621733 19.23760841063471, 45.29829215284788 19.3399052695533 M45.29829215284788 19.3399052695533 C44.95152630732627 19.373357353623824, 44.60476046180465 19.40680943769435, 44.0540567896239 19.45993515863156 M45.29829215284788 19.3399052695533 C44.83562403362374 19.384538306575028, 44.37295591439959 19.429171343596757, 44.0540567896239 19.45993515863156 M44.0540567896239 19.45993515863156 C43.61573034808623 19.473991434461013, 43.17740390654856 19.488047710290463, 42.80468750000001 19.5 M44.0540567896239 19.45993515863156 C43.69810633790648 19.471349796802613, 43.342155886189055 19.482764434973667, 42.80468750000001 19.5 M42.80468750000001 19.5 C42.80468750000001 19.5, 42.8046875 19.5, 42.8046875 19.5 M42.80468750000001 19.5 C42.80468750000001 19.5, 42.8046875 19.5, 42.8046875 19.5 M42.8046875 19.5 C9.164338493251549 19.5, -24.476010513496902 19.5, -42.80468749999999 19.5 M42.8046875 19.5 C15.163355955933042 19.5, -12.477975588133916 19.5, -42.80468749999999 19.5 M-42.80468749999999 19.5 C-43.29783036355691 19.484185868210083, -43.790973227113824 19.468371736420167, -44.05405678962389 19.45993515863156 M-42.80468749999999 19.5 C-43.190392671655836 19.48763118587457, -43.57609784331168 19.47526237174914, -44.05405678962389 19.45993515863156 M-44.05405678962389 19.45993515863156 C-44.486016765794155 19.41826449923829, -44.91797674196442 19.376593839845025, -45.29829215284787 19.3399052695533 M-44.05405678962389 19.45993515863156 C-44.510185042699106 19.415933014631875, -44.96631329577432 19.371930870632195, -45.29829215284787 19.3399052695533 M-45.29829215284787 19.3399052695533 C-45.779591656654425 19.26209249831125, -46.26089116046097 19.184279727069207, -46.53228075967676 19.140403561325773 M-45.29829215284787 19.3399052695533 C-45.57213701236722 19.295632156364814, -45.84598187188657 19.251359043176326, -46.53228075967676 19.140403561325773 M-46.53228075967676 19.140403561325773 C-46.954738464935915 19.043980346894532, -47.37719617019507 18.947557132463295, -47.750951886235384 18.862249829261074 M-46.53228075967676 19.140403561325773 C-46.959544403301315 19.04288342282431, -47.386808046925864 18.94536328432285, -47.750951886235384 18.862249829261074 M-47.750951886235384 18.862249829261074 C-48.020163859138584 18.78234912882589, -48.28937583204178 18.702448428390703, -48.94929775146059 18.506587066708043 M-47.750951886235384 18.862249829261074 C-48.08203142606428 18.763987159711828, -48.413110965893175 18.66572449016258, -48.94929775146059 18.506587066708043 M-48.94929775146059 18.506587066708043 C-49.40085098302512 18.34041130337998, -49.852404214589654 18.174235540051917, -50.1223940951478 18.074876768247425 M-48.94929775146059 18.506587066708043 C-49.39192914234939 18.343694623221243, -49.83456053323818 18.180802179734442, -50.1223940951478 18.074876768247425 M-50.1223940951478 18.074876768247425 C-50.49947252650819 17.907955332318416, -50.87655095786859 17.74103389638941, -51.26542041279238 17.568892924097174 M-50.1223940951478 18.074876768247425 C-50.488814547465495 17.912673303482904, -50.85523499978319 17.750469838718384, -51.26542041279238 17.568892924097174 M-51.26542041279238 17.568892924097174 C-51.65861185552005 17.36376520027729, -52.05180329824772 17.158637476457404, -52.37367976407678 16.990714730406097 M-51.26542041279238 17.568892924097174 C-51.54751365371566 17.42172506099684, -51.82960689463894 17.274557197896513, -52.37367976407678 16.990714730406097 M-52.37367976407678 16.990714730406097 C-52.73060390518904 16.77434521854477, -53.087528046301294 16.557975706683447, -53.442618073605686 16.3427180453909 M-52.37367976407678 16.990714730406097 C-52.69469526220132 16.796113248946536, -53.01571076032586 16.601511767486976, -53.442618073605686 16.3427180453909 M-53.442618073605686 16.3427180453909 C-53.82023176565696 16.079311080449198, -54.19784545770823 15.8159041155075, -54.46784284457871 15.627565626425156 M-53.442618073605686 16.3427180453909 C-53.707276224920875 16.158103975900143, -53.97193437623606 15.97348990640939, -54.46784284457871 15.627565626425156 M-54.46784284457871 15.627565626425156 C-54.807666422887934 15.356565365808757, -55.14749000119715 15.085565105192357, -55.445141208501866 14.848196188198125 M-54.46784284457871 15.627565626425156 C-54.784705250190896 15.374876290012175, -55.10156765580308 15.122186953599194, -55.445141208501866 14.848196188198125 M-55.445141208501866 14.848196188198125 C-55.70872311529343 14.608818074445114, -55.972305022085 14.369439960692103, -56.370497236767974 14.007812326905697 M-55.445141208501866 14.848196188198125 C-55.69351269902135 14.622631772057861, -55.94188418954083 14.3970673559176, -56.370497236767974 14.007812326905697 M-56.370497236767974 14.007812326905697 C-56.64669760320039 13.72261277209242, -56.92289796963281 13.437413217279143, -57.240108442968655 13.109867360095677 M-56.370497236767974 14.007812326905697 C-56.70867502901276 13.658615991499861, -57.04685282125754 13.309419656094025, -57.240108442968655 13.109867360095677 M-57.240108442968655 13.109867360095677 C-57.49184248751763 12.81416622729553, -57.743576532066605 12.518465094495383, -58.050401408126575 12.158051136245307 M-57.240108442968655 13.109867360095677 C-57.403046283995494 12.918471300599748, -57.56598412502233 12.727075241103819, -58.050401408126575 12.158051136245307 M-58.050401408126575 12.158051136245307 C-58.21619387191553 11.93590433877228, -58.38198633570448 11.713757541299254, -58.798046464640635 11.156274872382316 M-58.050401408126575 12.158051136245307 C-58.288347050047086 11.839225653365746, -58.5262926919676 11.520400170486186, -58.798046464640635 11.156274872382316 M-58.798046464640635 11.156274872382316 C-59.05634680451029 10.759456186989482, -59.314647144379954 10.362637501596648, -59.47997137860425 10.108655082055249 M-58.798046464640635 11.156274872382316 C-59.037220890253 10.788838727315772, -59.276395315865365 10.421402582249229, -59.47997137860425 10.108655082055249 M-59.47997137860425 10.108655082055249 C-59.712247234817625 9.696225778867483, -59.944523091031 9.283796475679715, -60.093373974273504 9.019496659696289 M-59.47997137860425 10.108655082055249 C-59.68108449694277 9.751558375533667, -59.8821976152813 9.394461669012088, -60.093373974273504 9.019496659696289 M-60.093373974273504 9.019496659696289 C-60.26799738675048 8.656887407345367, -60.442620799227456 8.294278154994446, -60.63573364880834 7.893275190886686 M-60.093373974273504 9.019496659696289 C-60.247170807157076 8.700134245488488, -60.40096764004065 8.380771831280686, -60.63573364880834 7.893275190886686 M-60.63573364880834 7.893275190886686 C-60.74412233515708 7.625553040052607, -60.85251102150582 7.357830889218528, -61.104821729970325 6.73461856121551 M-60.63573364880834 7.893275190886686 C-60.75730763639408 7.59298509107675, -60.87888162397983 7.292694991266815, -61.104821729970325 6.73461856121551 M-61.104821729970325 6.73461856121551 C-61.1889640564399 6.48119528014827, -61.273106382909475 6.22777199908103, -61.49871063421488 5.5482879393051325 M-61.104821729970325 6.73461856121551 C-61.23375689570106 6.346286385063381, -61.3626920614318 5.957954208911253, -61.49871063421488 5.5482879393051325 M-61.49871063421488 5.5482879393051325 C-61.58404566480178 5.222868483241085, -61.669380695388675 4.897449027177038, -61.81578178754556 4.339158212148136 M-61.49871063421488 5.5482879393051325 C-61.58482877716068 5.219882136413537, -61.67094692010649 4.89147633352194, -61.81578178754556 4.339158212148136 M-61.81578178754556 4.339158212148136 C-61.8636576297713 4.093325880881781, -61.911533471997046 3.847493549615426, -62.054732276581774 3.112197953150904 M-61.81578178754556 4.339158212148136 C-61.87723252549802 4.023621660380317, -61.93868326345048 3.7080851086124986, -62.054732276581774 3.112197953150904 M-62.054732276581774 3.112197953150904 C-62.08825672124017 2.852188980530766, -62.12178116589857 2.592180007910628, -62.21458020250937 1.872449005199809 M-62.054732276581774 3.112197953150904 C-62.11394891610573 2.6529253906512427, -62.17316555562968 2.1936528281515812, -62.21458020250937 1.872449005199809 M-62.21458020250937 1.872449005199809 C-62.23767399526686 1.5127445420278856, -62.26076778802435 1.153040078855962, -62.29466871591342 0.6250057626472781 M-62.21458020250937 1.872449005199809 C-62.23295821893121 1.586196564961769, -62.25133623535305 1.299944124723729, -62.29466871591342 0.6250057626472781 M-62.29466871591342 0.6250057626472781 C-62.29466871591342 0.15868666366159867, -62.29466871591342 -0.3076324353240808, -62.29466871591342 -0.6250057626472687 M-62.29466871591342 0.6250057626472781 C-62.29466871591342 0.13542270167269999, -62.29466871591342 -0.35416035930187817, -62.29466871591342 -0.6250057626472687 M-62.29466871591342 -0.6250057626472687 C-62.265974297933035 -1.0719444844090822, -62.237279879952645 -1.5188832061708957, -62.21458020250937 -1.8724490051997822 M-62.29466871591342 -0.6250057626472687 C-62.27683176593011 -0.9028306563641133, -62.25899481594681 -1.180655550080958, -62.21458020250937 -1.8724490051997822 M-62.21458020250937 -1.8724490051997822 C-62.17295830518301 -2.1952602216897494, -62.131336407856644 -2.518071438179717, -62.054732276581774 -3.112197953150895 M-62.21458020250937 -1.8724490051997822 C-62.15404144077955 -2.3419756864455468, -62.093502679049735 -2.8115023676913116, -62.054732276581774 -3.112197953150895 M-62.054732276581774 -3.112197953150895 C-61.96531251650116 -3.571349522291865, -61.87589275642055 -4.030501091432835, -61.81578178754556 -4.339158212148126 M-62.054732276581774 -3.112197953150895 C-61.98730090470669 -3.4584437961039565, -61.91986953283161 -3.8046896390570173, -61.81578178754556 -4.339158212148126 M-61.81578178754556 -4.339158212148126 C-61.70351779274748 -4.767269479836319, -61.591253797949406 -5.195380747524513, -61.49871063421489 -5.548287939305123 M-61.81578178754556 -4.339158212148126 C-61.720898254818984 -4.700990245217783, -61.62601472209241 -5.06282227828744, -61.49871063421489 -5.548287939305123 M-61.49871063421489 -5.548287939305123 C-61.40926125944843 -5.817695204279271, -61.31981188468196 -6.087102469253419, -61.10482172997033 -6.734618561215485 M-61.49871063421489 -5.548287939305123 C-61.409854567635115 -5.815908254551783, -61.32099850105534 -6.0835285697984425, -61.10482172997033 -6.734618561215485 M-61.10482172997033 -6.734618561215485 C-60.963275550681765 -7.084240360667449, -60.8217293713932 -7.433862160119414, -60.63573364880834 -7.893275190886676 M-61.10482172997033 -6.734618561215485 C-60.923211521487765 -7.183199287361943, -60.7416013130052 -7.6317800135084015, -60.63573364880834 -7.893275190886676 M-60.63573364880834 -7.893275190886676 C-60.51025254110633 -8.153839395895488, -60.38477143340433 -8.4144036009043, -60.093373974273504 -9.019496659696282 M-60.63573364880834 -7.893275190886676 C-60.43609604947115 -8.307826937470692, -60.23645845013396 -8.722378684054705, -60.093373974273504 -9.019496659696282 M-60.093373974273504 -9.019496659696282 C-59.96601220903837 -9.245640370648474, -59.83865044380323 -9.471784081600664, -59.47997137860425 -10.108655082055243 M-60.093373974273504 -9.019496659696282 C-59.917694079482956 -9.331434102415278, -59.74201418469241 -9.643371545134276, -59.47997137860425 -10.108655082055243 M-59.47997137860425 -10.108655082055243 C-59.30263314384952 -10.381094232622246, -59.12529490909479 -10.653533383189249, -58.79804646464064 -11.156274872382308 M-59.47997137860425 -10.108655082055243 C-59.30242307775811 -10.381416950549294, -59.12487477691197 -10.654178819043347, -58.79804646464064 -11.156274872382308 M-58.79804646464064 -11.156274872382308 C-58.63721620676149 -11.371772766002467, -58.47638594888233 -11.587270659622625, -58.05040140812659 -12.158051136245302 M-58.79804646464064 -11.156274872382308 C-58.63514976991561 -11.374541603119678, -58.47225307519057 -11.592808333857045, -58.05040140812659 -12.158051136245302 M-58.05040140812659 -12.158051136245302 C-57.86567995399665 -12.375035467214829, -57.68095849986671 -12.592019798184356, -57.24010844296866 -13.10986736009567 M-58.05040140812659 -12.158051136245302 C-57.85727049424897 -12.384913697146269, -57.664139580371355 -12.611776258047234, -57.24010844296866 -13.10986736009567 M-57.24010844296866 -13.10986736009567 C-56.90339099717719 -13.457555767891787, -56.566673551385726 -13.805244175687905, -56.370497236767996 -14.007812326905677 M-57.24010844296866 -13.10986736009567 C-57.03023840947947 -13.326575400323451, -56.82036837599029 -13.543283440551232, -56.370497236767996 -14.007812326905677 M-56.370497236767996 -14.007812326905677 C-56.114248334039985 -14.240530800388818, -55.85799943131198 -14.473249273871959, -55.44514120850189 -14.848196188198107 M-56.370497236767996 -14.007812326905677 C-56.06607911043707 -14.28427681477717, -55.76166098410615 -14.560741302648664, -55.44514120850189 -14.848196188198107 M-55.44514120850189 -14.848196188198107 C-55.07778616084384 -15.141152062977024, -54.710431113185805 -15.434107937755943, -54.46784284457872 -15.627565626425149 M-55.44514120850189 -14.848196188198107 C-55.24444683921863 -15.008244607000044, -55.04375246993537 -15.168293025801981, -54.46784284457872 -15.627565626425149 M-54.46784284457872 -15.627565626425149 C-54.14859193716358 -15.850261239288912, -53.829341029748434 -16.072956852152675, -53.442618073605715 -16.342718045390885 M-54.46784284457872 -15.627565626425149 C-54.14580719379518 -15.852203755713111, -53.82377154301163 -16.076841885001073, -53.442618073605715 -16.342718045390885 M-53.442618073605715 -16.342718045390885 C-53.17722107489337 -16.503603265656192, -52.91182407618102 -16.6644884859215, -52.37367976407679 -16.99071473040609 M-53.442618073605715 -16.342718045390885 C-53.17153276183245 -16.50705155446196, -52.90044745005919 -16.67138506353303, -52.37367976407679 -16.99071473040609 M-52.37367976407679 -16.99071473040609 C-52.00024640158867 -17.185534676420662, -51.62681303910054 -17.38035462243523, -51.26542041279239 -17.56889292409717 M-52.37367976407679 -16.99071473040609 C-52.01910889866887 -17.175694123775923, -51.66453803326095 -17.360673517145756, -51.26542041279239 -17.56889292409717 M-51.26542041279239 -17.56889292409717 C-50.90402683688538 -17.728871139791668, -50.54263326097838 -17.888849355486165, -50.122394095147804 -18.07487676824742 M-51.26542041279239 -17.56889292409717 C-50.99993125038017 -17.68641710084087, -50.734442087967956 -17.80394127758457, -50.122394095147804 -18.07487676824742 M-50.122394095147804 -18.07487676824742 C-49.802334648504306 -18.19266160320932, -49.482275201860816 -18.31044643817122, -48.94929775146062 -18.506587066708033 M-50.122394095147804 -18.07487676824742 C-49.76345442008481 -18.206969886672585, -49.40451474502183 -18.33906300509775, -48.94929775146062 -18.506587066708033 M-48.94929775146062 -18.506587066708033 C-48.55772544122153 -18.622803672981995, -48.16615313098244 -18.739020279255957, -47.75095188623541 -18.862249829261067 M-48.94929775146062 -18.506587066708033 C-48.59814377514696 -18.61080772363309, -48.2469897988333 -18.715028380558152, -47.75095188623541 -18.862249829261067 M-47.75095188623541 -18.862249829261067 C-47.35720932806603 -18.952118998752912, -46.96346676989665 -19.04198816824476, -46.532280759676766 -19.140403561325773 M-47.75095188623541 -18.862249829261067 C-47.33997535024306 -18.95605254172879, -46.9289988142507 -19.049855254196515, -46.532280759676766 -19.140403561325773 M-46.532280759676766 -19.140403561325773 C-46.255136547647005 -19.18521008824128, -45.97799233561724 -19.23001661515679, -45.29829215284788 -19.3399052695533 M-46.532280759676766 -19.140403561325773 C-46.05571642020929 -19.217450787919223, -45.57915208074183 -19.294498014512676, -45.29829215284788 -19.3399052695533 M-45.29829215284788 -19.3399052695533 C-44.956367980356006 -19.372890283249607, -44.614443807864134 -19.40587529694592, -44.0540567896239 -19.45993515863156 M-45.29829215284788 -19.3399052695533 C-44.95268841903445 -19.37324524610498, -44.607084685221025 -19.40658522265666, -44.0540567896239 -19.45993515863156 M-44.0540567896239 -19.45993515863156 C-43.80196861948751 -19.468019135587976, -43.54988044935113 -19.476103112544394, -42.80468750000001 -19.5 M-44.0540567896239 -19.45993515863156 C-43.555643243616785 -19.47591831094889, -43.05722969760967 -19.491901463266224, -42.80468750000001 -19.5 M-42.80468750000001 -19.5 C-42.80468750000001 -19.5, -42.8046875 -19.5, -42.8046875 -19.5 M-42.80468750000001 -19.5 C-42.80468750000001 -19.5, -42.80468750000001 -19.5, -42.8046875 -19.5" stroke="#6366f1" stroke-width="1.3" fill="none" stroke-dasharray="0 0" style="fill:#ffffff !important;stroke:#6366f1 !important"/></g><g class="label" style="color:#111827 !important" transform="translate(-49.9296875, -12)"><rect/><foreignObject width="99.859375" height="24"><div style="color: rgb(17, 24, 39) !important; display: table-cell; white-space: nowrap; line-height: 1.5; max-width: 200px; text-align: center;" xmlns="http://www.w3.org/1999/xhtml"><span style="color:#111827 !important" class="nodeLabel"><p>Buyer / brand</p></span></div></foreignObject></g></g><g class="node default" id="my-svg-flowchart-CON-4" data-look="classic" transform="translate(525.7768402099609, 105.5)"><rect class="basic label-container" style="" x="-130" y="-63" width="260" height="126"/><g class="label" style="" transform="translate(-100, -48)"><rect/><foreignObject width="200" height="96"><div xmlns="http://www.w3.org/1999/xhtml" style="display: table; white-space: break-spaces; line-height: 1.5; max-width: 200px; text-align: center; width: 200px;"><span class="nodeLabel"><p>Consultation (content-aware)<br />vision + url_context<br />agrees scope and price</p></span></div></foreignObject></g></g><g class="node default" id="my-svg-flowchart-ESC-5" data-look="classic" transform="translate(954.9330902099609, 105.5)"><polygon points="27.75,0 242.75,0 270.5,-55.5 242.75,-111 27.75,-111 0,-55.5" class="label-container" transform="translate(-135.25,55.5)" style="fill:#fef9c3 !important;stroke:#ca8a04 !important"/><g class="label" style="color:#111827 !important" transform="translate(-100, -48)"><rect/><foreignObject width="200" height="96"><div style="color: rgb(17, 24, 39) !important; display: table; white-space: break-spaces; line-height: 1.5; max-width: 200px; text-align: center; width: 200px;" xmlns="http://www.w3.org/1999/xhtml"><span style="color:#111827 !important" class="nodeLabel"><p>Escrow ledger · Firestore<br />Funded → In Progress →<br />Delivered → Released / Refunded</p></span></div></foreignObject></g></g><g class="node default" id="my-svg-flowchart-ORCH-6" data-look="classic" transform="translate(1363.042465209961, 75)"><rect class="basic label-container" style="" x="-97.234375" y="-27" width="194.46875" height="54"/><g class="label" style="" transform="translate(-67.234375, -12)"><rect/><foreignObject width="134.46875" height="24"><div xmlns="http://www.w3.org/1999/xhtml" style="display: table-cell; white-space: nowrap; line-height: 1.5; max-width: 200px; text-align: center;"><span class="nodeLabel"><p>Order orchestrator</p></span></div></foreignObject></g></g><g class="node default" id="my-svg-flowchart-DLV-7" data-look="classic" transform="translate(1718.269027709961, 105.5)"><rect class="basic label-container" style="" x="-85.0546875" y="-51" width="170.109375" height="102"/><g class="label" style="" transform="translate(-55.0546875, -36)"><rect/><foreignObject width="110.109375" height="72"><div xmlns="http://www.w3.org/1999/xhtml" style="display: table-cell; white-space: nowrap; line-height: 1.5; max-width: 200px; text-align: center;"><span class="nodeLabel"><p>Delivery<br />images · videos<br />cards · copy</p></span></div></foreignObject></g></g></g></g><g class="node default ext" id="my-svg-flowchart-EXT-0" data-look="classic" transform="translate(141.419677734375, 264)"><rect class="basic label-container" style="fill:#fff7ed !important;stroke:#f59e0b !important" x="-110.390625" y="-39" width="220.78125" height="78"/><g class="label" style="color:#111827 !important" transform="translate(-80.390625, -24)"><rect/><foreignObject width="160.78125" height="48"><div style="color: rgb(17, 24, 39) !important; display: table-cell; white-space: nowrap; line-height: 1.5; max-width: 200px; text-align: center;" xmlns="http://www.w3.org/1999/xhtml"><span style="color:#111827 !important" class="nodeLabel"><p>External marketplaces<br />and other AI agents</p></span></div></foreignObject></g></g><g class="node default store" id="my-svg-flowchart-WEB-47" data-look="classic" transform="translate(1876.59716796875, 713.25)"><circle class="basic label-container" style="fill:#f3f4f6 !important;stroke:#9ca3af !important" r="22.7734375" cx="0" cy="0"/><g class="label" style="color:#111827 !important" transform="translate(-15.2734375, -12)"><rect/><foreignObject width="30.546875" height="24"><div style="color: rgb(17, 24, 39) !important; display: table-cell; white-space: nowrap; line-height: 1.5; max-width: 200px; text-align: center;" xmlns="http://www.w3.org/1999/xhtml"><span style="color:#111827 !important" class="nodeLabel"><p>Web</p></span></div></foreignObject></g></g><g class="node default store" id="my-svg-flowchart-VS-48" data-look="classic" transform="translate(2055.67529296875, 713.25)"><path d="M0,12.829367735653868 a65.8828125,12.829367735653868 0,0,0 131.765625,0 a65.8828125,12.829367735653868 0,0,0 -131.765625,0 l0,75.82936773565388 a65.8828125,12.829367735653868 0,0,0 131.765625,0 l0,-75.82936773565388" class="basic label-container outer-path" style="fill:#f3f4f6 !important;stroke:#9ca3af !important" transform="translate(-65.8828125, -50.744051603480806)"/><g class="label" style="color:#111827 !important" transform="translate(-58.3828125, -14)"><rect/><foreignObject width="116.765625" height="48"><div style="color: rgb(17, 24, 39) !important; display: table-cell; white-space: nowrap; line-height: 1.5; max-width: 200px; text-align: center;" xmlns="http://www.w3.org/1999/xhtml"><span style="color:#111827 !important" class="nodeLabel"><p>Vertex AI Search<br />brand KB</p></span></div></foreignObject></g></g><g class="node default store" id="my-svg-flowchart-VX-49" data-look="classic" transform="translate(2241.41748046875, 713.25)"><path d="M0,11.523819149652988 a53.4453125,11.523819149652988 0,0,0 106.890625,0 a53.4453125,11.523819149652988 0,0,0 -106.890625,0 l0,74.523819149653 a53.4453125,11.523819149652988 0,0,0 106.890625,0 l0,-74.523819149653" class="basic label-container outer-path" style="fill:#f3f4f6 !important;stroke:#9ca3af !important" transform="translate(-53.4453125, -48.78572872447948)"/><g class="label" style="color:#111827 !important" transform="translate(-45.9453125, -14)"><rect/><foreignObject width="91.890625" height="48"><div style="color: rgb(17, 24, 39) !important; display: table-cell; white-space: nowrap; line-height: 1.5; max-width: 200px; text-align: center;" xmlns="http://www.w3.org/1999/xhtml"><span style="color:#111827 !important" class="nodeLabel"><p>Vertex AI<br />Gemini · Veo</p></span></div></foreignObject></g></g><g class="node default store" id="my-svg-flowchart-GCS-50" data-look="classic" transform="translate(2454.59716796875, 713.25)"><path d="M0,11.944317514198055 a57.1796875,11.944317514198055 0,0,0 114.359375,0 a57.1796875,11.944317514198055 0,0,0 -114.359375,0 l0,50.944317514198055 a57.1796875,11.944317514198055 0,0,0 114.359375,0 l0,-50.944317514198055" class="basic label-container outer-path" style="fill:#f3f4f6 !important;stroke:#9ca3af !important" transform="translate(-57.1796875, -37.416476271297086)"/><g class="label" style="color:#111827 !important" transform="translate(-49.6796875, -2)"><rect/><foreignObject width="99.359375" height="24"><div style="color: rgb(17, 24, 39) !important; display: table-cell; white-space: nowrap; line-height: 1.5; max-width: 200px; text-align: center;" xmlns="http://www.w3.org/1999/xhtml"><span style="color:#111827 !important" class="nodeLabel"><p>Cloud Storage</p></span></div></foreignObject></g></g></g></g></g><defs><filter id="my-svg-drop-shadow" height="130%" width="130%"><feDropShadow dx="4" dy="4" stdDeviation="0" flood-opacity="0.06" flood-color="#000000"/></filter></defs><defs><filter id="my-svg-drop-shadow-small" height="150%" width="150%"><feDropShadow dx="2" dy="2" stdDeviation="0" flood-opacity="0.06" flood-color="#000000"/></filter></defs><text text-anchor="middle" x="1281.298583984375" y="-25" class="flowchartTitleText">Lumina — AI-Agent Marketplace with Escrow</text></svg>